<svg xmlns="http://www.w3.org/2000/svg" xmlns:xlink="http://www.w3.org/1999/xlink" width="1400" zoomAndPan="magnify" viewBox="0 0 1050 1049.999947" height="1400" preserveAspectRatio="xMidYMid meet" version="1.0"><defs><clipPath id="7251b484d3"><path d="M 274 9 L 729 9 L 729 449 L 274 449 Z M 274 9 " clip-rule="nonzero"/></clipPath><clipPath id="1aee7bf8b1"><path d="M 122.929688 -147.945312 L 1171.183594 95.9375 L 927.300781 1144.191406 L -120.953125 900.304688 Z M 122.929688 -147.945312 " clip-rule="nonzero"/></clipPath><clipPath id="95531d335d"><path d="M 122.589844 -148.550781 L 1171.570312 95.5 L 927.519531 1144.484375 L -121.464844 900.433594 Z M 122.589844 -148.550781 " clip-rule="nonzero"/></clipPath><clipPath id="35bb5e75b3"><path d="M -510.617188 -382.097656 L 1664.054688 123.851562 L 1379.722656 1345.964844 L -794.949219 840.011719 Z M -510.617188 -382.097656 " clip-rule="nonzero"/></clipPath><clipPath id="3ef059055e"><path d="M 351.695312 -77.542969 L 731.464844 10.8125 L 626.058594 463.863281 L 246.289062 375.507812 Z M 351.695312 -77.542969 " clip-rule="nonzero"/></clipPath><clipPath id="66faa2498d"><path d="M 528 147 L 599 147 L 599 226 L 528 226 Z M 528 147 " clip-rule="nonzero"/></clipPath><clipPath id="89011b12f2"><path d="M 122.929688 -147.945312 L 1171.183594 95.9375 L 927.300781 1144.191406 L -120.953125 900.304688 Z M 122.929688 -147.945312 " clip-rule="nonzero"/></clipPath><clipPath id="97a0e7d937"><path d="M 122.589844 -148.550781 L 1171.570312 95.5 L 927.519531 1144.484375 L -121.464844 900.433594 Z M 122.589844 -148.550781 " clip-rule="nonzero"/></clipPath><clipPath id="494cebb187"><path d="M -510.617188 -382.097656 L 1664.054688 123.851562 L 1379.722656 1345.964844 L -794.949219 840.011719 Z M -510.617188 -382.097656 " clip-rule="nonzero"/></clipPath><clipPath id="7181a2b7de"><path d="M 291 328 L 456 328 L 456 503 L 291 503 Z M 291 328 " clip-rule="nonzero"/></clipPath><clipPath id="cf7b6a6595"><path d="M 122.929688 -147.945312 L 1171.183594 95.9375 L 927.300781 1144.191406 L -120.953125 900.304688 Z M 122.929688 -147.945312 " clip-rule="nonzero"/></clipPath><clipPath id="0b6f074c17"><path d="M 122.589844 -148.550781 L 1171.570312 95.5 L 927.519531 1144.484375 L -121.464844 900.433594 Z M 122.589844 -148.550781 " clip-rule="nonzero"/></clipPath><clipPath id="ad22db88fb"><path d="M -510.617188 -382.097656 L 1664.054688 123.851562 L 1379.722656 1345.964844 L -794.949219 840.011719 Z M -510.617188 -382.097656 " clip-rule="nonzero"/></clipPath><clipPath id="c134d2e053"><path d="M 249 617 L 332 617 L 332 909 L 249 909 Z M 249 617 " clip-rule="nonzero"/></clipPath><clipPath id="406711590c"><path d="M 122.929688 -147.945312 L 1171.183594 95.9375 L 927.300781 1144.191406 L -120.953125 900.304688 Z M 122.929688 -147.945312 " clip-rule="nonzero"/></clipPath><clipPath id="29d5782bc4"><path d="M 122.589844 -148.550781 L 1171.570312 95.5 L 927.519531 1144.484375 L -121.464844 900.433594 Z M 122.589844 -148.550781 " clip-rule="nonzero"/></clipPath><clipPath id="ed9ea904da"><path d="M -510.617188 -382.097656 L 1664.054688 123.851562 L 1379.722656 1345.964844 L -794.949219 840.011719 Z M -510.617188 -382.097656 " clip-rule="nonzero"/></clipPath><clipPath id="82532b16a1"><path d="M 185 541 L 272 541 L 272 813 L 185 813 Z M 185 541 " clip-rule="nonzero"/></clipPath><clipPath id="21bf278de8"><path d="M 122.929688 -147.945312 L 1171.183594 95.9375 L 927.300781 1144.191406 L -120.953125 900.304688 Z M 122.929688 -147.945312 " clip-rule="nonzero"/></clipPath><clipPath id="9d2c447131"><path d="M 122.589844 -148.550781 L 1171.570312 95.5 L 927.519531 1144.484375 L -121.464844 900.433594 Z M 122.589844 -148.550781 " clip-rule="nonzero"/></clipPath><clipPath id="dcbbe62534"><path d="M -510.617188 -382.097656 L 1664.054688 123.851562 L 1379.722656 1345.964844 L -794.949219 840.011719 Z M -510.617188 -382.097656 " clip-rule="nonzero"/></clipPath><clipPath id="9fa533b212"><path d="M 119 509 L 238 509 L 238 822 L 119 822 Z M 119 509 " clip-rule="nonzero"/></clipPath><clipPath id="27c55761cc"><path d="M 122.929688 -147.945312 L 1171.183594 95.9375 L 927.300781 1144.191406 L -120.953125 900.304688 Z M 122.929688 -147.945312 " clip-rule="nonzero"/></clipPath><clipPath id="29d26e5b48"><path d="M 122.589844 -148.550781 L 1171.570312 95.5 L 927.519531 1144.484375 L -121.464844 900.433594 Z M 122.589844 -148.550781 " clip-rule="nonzero"/></clipPath><clipPath id="96fdca7ce3"><path d="M -510.617188 -382.097656 L 1664.054688 123.851562 L 1379.722656 1345.964844 L -794.949219 840.011719 Z M -510.617188 -382.097656 " clip-rule="nonzero"/></clipPath><clipPath id="4b54236f04"><path d="M 203 855 L 578 855 L 578 1035 L 203 1035 Z M 203 855 " clip-rule="nonzero"/></clipPath><clipPath id="d77c47cd19"><path d="M 122.929688 -147.945312 L 1171.183594 95.9375 L 927.300781 1144.191406 L -120.953125 900.304688 Z M 122.929688 -147.945312 " clip-rule="nonzero"/></clipPath><clipPath id="12f0d1f62f"><path d="M 122.589844 -148.550781 L 1171.570312 95.5 L 927.519531 1144.484375 L -121.464844 900.433594 Z M 122.589844 -148.550781 " clip-rule="nonzero"/></clipPath><clipPath id="8e9f8383fc"><path d="M -510.617188 -382.097656 L 1664.054688 123.851562 L 1379.722656 1345.964844 L -794.949219 840.011719 Z M -510.617188 -382.097656 " clip-rule="nonzero"/></clipPath><clipPath id="0e6fb17af3"><path d="M 204.449219 853.34375 L 596.875 944.644531 L 571.582031 1053.351562 L 179.15625 962.050781 Z M 204.449219 853.34375 " clip-rule="nonzero"/></clipPath></defs><g clip-path="url(#7251b484d3)"><g clip-path="url(#1aee7bf8b1)"><g clip-path="url(#95531d335d)"><g clip-path="url(#35bb5e75b3)"><g clip-path="url(#3ef059055e)"><path fill="#f0ede8" d="M 279.53125 271.082031 L 398.144531 294.660156 C 398.199219 294.785156 398.230469 294.925781 398.296875 295.042969 C 411.460938 316.726562 424.863281 338.800781 439.121094 357.453125 C 453.433594 376.148438 468.53125 391.308594 483.3125 406.148438 C 484.613281 407.453125 486.40625 408.160156 488.257812 408.09375 C 490.101562 408.015625 491.835938 407.175781 493.035156 405.769531 C 506.035156 390.527344 519.046875 375.269531 531.878906 360.066406 L 556.351562 444.011719 C 557.007812 446.261719 558.808594 447.992188 561.074219 448.570312 C 563.351562 449.144531 565.75 448.480469 567.398438 446.808594 C 598.410156 415.46875 631.132812 382.589844 643.171875 344.722656 C 655.246094 306.730469 646.273438 264.523438 637.921875 224.605469 L 637.914062 224.558594 C 637.914062 224.53125 637.898438 224.511719 637.894531 224.492188 C 644.765625 214.417969 651.246094 204.480469 657.148438 194.769531 C 696.628906 129.753906 712.519531 73.613281 728.226562 18.207031 C 728.90625 15.800781 728.167969 13.199219 726.3125 11.515625 C 724.460938 9.828125 721.808594 9.332031 719.464844 10.238281 C 663.488281 31.988281 606.417969 54.101562 552.460938 100.816406 C 534.808594 116.09375 517.523438 134.019531 500.492188 153.636719 C 500.023438 153.660156 499.546875 153.722656 499.078125 153.859375 C 450.183594 167.070312 400.445312 180.492188 363.128906 198.195312 C 325.527344 216.03125 300.675781 238.136719 276.433594 259.648438 C 274.550781 261.316406 273.78125 263.910156 274.441406 266.332031 C 275.09375 268.75 277.066406 270.597656 279.53125 271.082031 Z M 630.558594 340.710938 C 620.589844 372.0625 594.566406 400.328125 565.886719 429.5 L 542.101562 347.894531 C 573.152344 310.824219 602.648438 274.269531 627.476562 239.417969 C 634.882812 275.738281 640.304688 310.042969 630.558594 340.710938 Z M 561.117188 110.816406 C 609.285156 69.113281 660.042969 47.664062 711.855469 27.398438 C 697.273438 78.429688 681.335938 129.4375 645.832031 187.898438 C 617.011719 235.367188 575.25 287.804688 530 341.742188 C 529.78125 341.964844 529.585938 342.199219 529.417969 342.445312 C 515.710938 358.765625 501.695312 375.226562 487.625 391.730469 C 474.550781 378.546875 461.769531 365.289062 449.625 349.410156 C 436.660156 332.46875 424.339844 312.433594 411.871094 291.902344 C 461.078125 222.949219 509.734375 155.289062 561.117188 110.816406 Z M 368.804688 210.140625 C 400.691406 195.007812 442.328125 182.992188 485.664062 171.191406 C 457.488281 205.472656 429.957031 243.796875 402.636719 282.066406 L 295.210938 260.71875 C 316.179688 242.347656 337.992188 224.757812 368.804688 210.140625 Z M 368.804688 210.140625 " fill-opacity="1" fill-rule="nonzero"/></g></g></g></g></g><g clip-path="url(#66faa2498d)"><g clip-path="url(#89011b12f2)"><g clip-path="url(#97a0e7d937)"><g clip-path="url(#494cebb187)"><path fill="#f0ede8" d="M 534.835938 222.269531 C 548.25 233.078125 570.089844 218.136719 582.726562 202.457031 C 595.363281 186.78125 605.320312 162.265625 591.910156 151.457031 C 578.503906 140.660156 556.664062 155.59375 544.027344 171.273438 C 531.390625 186.949219 521.433594 211.460938 534.835938 222.269531 Z M 554.328125 179.574219 C 568.625 161.828125 581.332031 159.925781 583.605469 161.757812 C 585.886719 163.597656 586.722656 176.417969 572.425781 194.15625 C 558.121094 211.898438 545.421875 213.800781 543.140625 211.96875 C 540.867188 210.128906 540.023438 197.308594 554.328125 179.574219 Z M 554.328125 179.574219 " fill-opacity="1" fill-rule="nonzero"/></g></g></g></g><g clip-path="url(#7181a2b7de)"><g clip-path="url(#cf7b6a6595)"><g clip-path="url(#0b6f074c17)"><g clip-path="url(#ad22db88fb)"><path fill="#f0ede8" d="M 326.488281 488.042969 C 353.414062 472.011719 402.605469 444.902344 451.992188 417.679688 C 453.625 416.78125 454.796875 415.238281 455.234375 413.425781 C 455.664062 411.613281 455.3125 409.707031 454.265625 408.167969 L 402.140625 331.652344 C 400.890625 329.816406 398.796875 328.726562 396.578125 328.761719 C 394.347656 328.800781 392.292969 329.949219 391.09375 331.828125 C 354.414062 389.492188 317.65625 447.265625 301.628906 473.6875 C 297.339844 480.769531 294.214844 486.097656 292.75 489.574219 C 292.417969 490.371094 292.105469 491.226562 291.875 492.097656 C 291.722656 492.683594 290.050781 499.152344 296.042969 501.671875 C 298.597656 502.746094 301.011719 502.085938 301.863281 501.847656 C 304.671875 501.050781 308.566406 498.792969 312.613281 496.390625 C 314.285156 495.390625 316.167969 494.253906 318.191406 493.03125 C 320.691406 491.515625 323.429688 489.855469 326.488281 488.042969 Z M 298.234375 489.128906 C 298.121094 489.164062 298.144531 489.144531 298.265625 489.121094 C 298.253906 489.125 298.234375 489.128906 298.234375 489.128906 Z M 319.722656 476.675781 C 317.179688 478.1875 314.890625 479.570312 312.75 480.863281 C 312.816406 480.753906 312.875 480.65625 312.945312 480.546875 C 328.09375 455.566406 361.984375 402.234375 396.871094 347.402344 L 439.246094 409.609375 C 392.113281 435.585938 345.714844 461.203125 319.722656 476.675781 Z M 319.722656 476.675781 " fill-opacity="1" fill-rule="nonzero"/></g></g></g></g><g clip-path="url(#c134d2e053)"><g clip-path="url(#406711590c)"><g clip-path="url(#29d5782bc4)"><g clip-path="url(#ed9ea904da)"><path fill="#f0ede8" d="M 318.972656 905.449219 C 320.941406 908.527344 325.03125 909.425781 328.109375 907.453125 C 331.179688 905.484375 332.078125 901.394531 330.113281 898.316406 C 304.625 858.523438 279.933594 819.832031 269.476562 774.851562 C 258.976562 729.75 262.695312 677.90625 266.5625 624.734375 C 266.828125 621.09375 264.085938 617.929688 260.445312 617.660156 C 256.800781 617.398438 253.640625 620.128906 253.367188 623.78125 C 249.539062 676.4375 245.550781 730.410156 256.589844 777.855469 C 267.652344 825.414062 293.699219 865.984375 318.972656 905.449219 Z M 318.972656 905.449219 " fill-opacity="1" fill-rule="nonzero"/></g></g></g></g><g clip-path="url(#82532b16a1)"><g clip-path="url(#21bf278de8)"><g clip-path="url(#9d2c447131)"><g clip-path="url(#dcbbe62534)"><path fill="#f0ede8" d="M 203.160156 684.542969 C 213.289062 642.882812 241.597656 598.109375 270.8125 552.03125 C 272.761719 548.945312 271.851562 544.855469 268.765625 542.90625 C 265.675781 540.945312 261.59375 541.867188 259.636719 544.949219 C 230.804688 590.425781 201.0625 637.199219 190.300781 681.421875 C 179.457031 726.003906 187.964844 767.535156 196.054688 807.449219 C 196.777344 811.03125 200.269531 813.335938 203.84375 812.613281 C 207.425781 811.894531 209.742188 808.402344 209.011719 804.816406 C 200.851562 764.523438 193.105469 725.84375 203.160156 684.542969 Z M 203.160156 684.542969 " fill-opacity="1" fill-rule="nonzero"/></g></g></g></g><g clip-path="url(#9fa533b212)"><g clip-path="url(#27c55761cc)"><g clip-path="url(#29d26e5b48)"><g clip-path="url(#96fdca7ce3)"><path fill="#f0ede8" d="M 146.757812 634.824219 C 163.476562 586.894531 198.792969 554.730469 235.644531 521.328125 C 238.355469 518.882812 238.5625 514.691406 236.105469 511.988281 C 233.652344 509.277344 229.472656 509.074219 226.769531 511.53125 C 190.28125 544.59375 152.261719 578.878906 134.265625 630.464844 C 116.421875 681.636719 118.523438 749.316406 120.480469 815.183594 C 120.582031 818.832031 123.628906 821.699219 127.285156 821.597656 C 130.9375 821.484375 133.804688 818.441406 133.691406 814.789062 C 131.722656 748.074219 129.890625 683.179688 146.757812 634.824219 Z M 146.757812 634.824219 " fill-opacity="1" fill-rule="nonzero"/></g></g></g></g><g clip-path="url(#4b54236f04)"><g clip-path="url(#d77c47cd19)"><g clip-path="url(#12f0d1f62f)"><g clip-path="url(#8e9f8383fc)"><g clip-path="url(#0e6fb17af3)"><path fill="#f0ede8" d="M 577.144531 1027.789062 C 577.292969 1024.144531 574.457031 1021.0625 570.800781 1020.921875 C 521.230469 1018.9375 472.425781 1016.976562 427.214844 1006.457031 C 408.46875 1002.09375 390.402344 996.277344 373.25 988.40625 C 314.589844 961.503906 265.414062 910.285156 215.15625 857.792969 C 212.621094 855.160156 208.441406 855.070312 205.800781 857.589844 C 203.160156 860.121094 203.070312 864.304688 205.601562 866.945312 C 255.425781 918.980469 306.34375 972.28125 367.734375 1000.429688 C 385.835938 1008.730469 404.769531 1014.8125 424.21875 1019.335938 C 470.863281 1030.1875 520.957031 1032.171875 570.269531 1034.140625 C 573.929688 1034.28125 577.003906 1031.441406 577.144531 1027.789062 Z M 577.144531 1027.789062 " fill-opacity="1" fill-rule="nonzero"/></g></g></g></g></g></svg>