<svg xmlns="http://www.w3.org/2000/svg" xmlns:xlink="http://www.w3.org/1999/xlink" width="500" zoomAndPan="magnify" viewBox="0 0 375 374.999991" height="500" preserveAspectRatio="xMidYMid meet" version="1.0"><defs><clipPath id="6e7890b7e4"><path d="M 114.203125 4.78125 L 243.203125 4.78125 L 243.203125 90.28125 L 114.203125 90.28125 Z M 114.203125 4.78125 " clip-rule="nonzero"/></clipPath><clipPath id="19dbe2c105"><path d="M 25.386719 253 L 125.886719 253 L 125.886719 327.925781 L 25.386719 327.925781 Z M 25.386719 253 " clip-rule="nonzero"/></clipPath><clipPath id="77a70add62"><path d="M 142.136719 275.75 L 232.886719 275.75 L 232.886719 374.75 L 142.136719 374.75 Z M 142.136719 275.75 " clip-rule="nonzero"/></clipPath><clipPath id="4f9a1343ed"><path d="M 6.101562 162 L 105.101562 162 L 105.101562 231.652344 L 6.101562 231.652344 Z M 6.101562 162 " clip-rule="nonzero"/></clipPath><clipPath id="c3f8430909"><path d="M 16.710938 47.574219 L 107.460938 47.574219 L 107.460938 146.574219 L 16.710938 146.574219 Z M 16.710938 47.574219 " clip-rule="nonzero"/></clipPath><clipPath id="9d591fe6f6"><path d="M 274.988281 43.328125 L 350.738281 43.328125 L 350.738281 130.328125 L 274.988281 130.328125 Z M 274.988281 43.328125 " clip-rule="nonzero"/></clipPath><clipPath id="decce260b1"><path d="M 249 253 L 334 253 L 334 342 L 249 342 Z M 249 253 " clip-rule="nonzero"/></clipPath><clipPath id="7e984b32b0"><path d="M 230.273438 297.664062 L 304 231.59375 L 350.550781 283.539062 L 276.824219 349.609375 Z M 230.273438 297.664062 " clip-rule="nonzero"/></clipPath><clipPath id="02b5714f10"><path d="M 230.273438 297.664062 L 304 231.59375 L 350.550781 283.539062 L 276.824219 349.609375 Z M 230.273438 297.664062 " clip-rule="nonzero"/></clipPath><clipPath id="5a15324d4c"><path d="M 290 130 L 370 130 L 370 234 L 290 234 Z M 290 130 " clip-rule="nonzero"/></clipPath><clipPath id="699a26e6c3"><path d="M 294.914062 235.078125 L 288.371094 134.792969 L 363.214844 129.910156 L 369.753906 230.199219 Z M 294.914062 235.078125 " clip-rule="nonzero"/></clipPath><clipPath id="2278c19a77"><path d="M 294.914062 235.078125 L 288.371094 134.792969 L 363.214844 129.910156 L 369.753906 230.199219 Z M 294.914062 235.078125 " clip-rule="nonzero"/></clipPath><clipPath id="44ae104802"><path d="M 88.964844 364.632812 L 125.914062 364.632812 L 125.914062 375 L 88.964844 375 Z M 88.964844 364.632812 " clip-rule="nonzero"/></clipPath><clipPath id="4a0c059bfe"><path d="M 92 356 L 135 356 L 135 375 L 92 375 Z M 92 356 " clip-rule="nonzero"/></clipPath><clipPath id="dd97e86f4d"><path d="M 98.925781 356.3125 L 134.246094 367.167969 L 128.15625 386.984375 L 92.835938 376.132812 Z M 98.925781 356.3125 " clip-rule="nonzero"/></clipPath><clipPath id="c492c28e65"><path d="M 140 0 L 179 0 L 179 5 L 140 5 Z M 140 0 " clip-rule="nonzero"/></clipPath><clipPath id="358d723122"><path d="M 140.589844 -13.144531 L 175.433594 -19.679688 L 178.792969 -1.753906 L 143.949219 4.78125 Z M 140.589844 -13.144531 " clip-rule="nonzero"/></clipPath><clipPath id="a6a7bffd04"><path d="M 105 0 L 147 0 L 147 16 L 105 16 Z M 105 0 " clip-rule="nonzero"/></clipPath><clipPath id="6f170e9cba"><path d="M 105.0625 -3.722656 L 139.960938 -15.859375 L 146.773438 3.722656 L 111.871094 15.859375 Z M 105.0625 -3.722656 " clip-rule="nonzero"/></clipPath></defs><g clip-path="url(#6e7890b7e4)"><path fill="#102e4a" d="M 175.601562 57.371094 L 157.414062 86.730469 C 156.988281 87.414062 156.96875 88.273438 157.359375 88.976562 C 157.75 89.679688 158.496094 90.113281 159.296875 90.113281 L 198.726562 90.113281 C 199.53125 90.113281 200.269531 89.679688 200.660156 88.976562 C 201.054688 88.273438 201.03125 87.414062 200.613281 86.730469 L 183.96875 59.867188 L 240.457031 76.71875 C 241.628906 77.070312 242.867188 76.398438 243.214844 75.230469 C 243.566406 74.054688 242.898438 72.820312 241.726562 72.472656 L 234.753906 70.390625 L 241.933594 46.003906 C 242.28125 44.828125 241.605469 43.59375 240.429688 43.25 L 214.621094 35.652344 C 213.445312 35.308594 212.210938 35.980469 211.867188 37.15625 L 204.722656 61.429688 L 117.566406 35.429688 C 116.390625 35.082031 115.15625 35.75 114.808594 36.921875 C 114.457031 38.097656 115.121094 39.332031 116.296875 39.679688 Z M 179.011719 60.285156 L 194.746094 85.679688 C 194.746094 85.679688 163.277344 85.679688 163.277344 85.679688 Z M 124.511719 69.664062 L 122.445312 67.65625 C 121.566406 66.800781 120.164062 66.820312 119.308594 67.695312 C 118.457031 68.574219 118.476562 69.980469 119.351562 70.832031 L 125.089844 76.417969 C 125.5 76.867188 126.085938 77.144531 126.734375 77.144531 C 127.292969 77.144531 127.851562 76.9375 128.285156 76.515625 L 134.066406 70.886719 C 134.945312 70.035156 134.960938 68.628906 134.109375 67.753906 C 133.253906 66.875 131.847656 66.855469 130.976562 67.710938 L 128.945312 69.6875 L 128.925781 52.074219 C 128.925781 50.847656 127.929688 49.859375 126.703125 49.859375 C 125.480469 49.859375 124.492188 50.855469 124.492188 52.078125 Z M 208.96875 62.699219 L 230.507812 69.121094 L 237.050781 46.875 C 237.050781 46.875 215.492188 40.535156 215.492188 40.53125 Z M 228.882812 4.582031 C 228.324219 4.582031 227.765625 4.789062 227.335938 5.210938 L 221.554688 10.835938 C 220.675781 11.691406 220.660156 13.089844 221.515625 13.96875 C 222.367188 14.847656 223.773438 14.863281 224.648438 14.011719 L 226.675781 12.039062 L 226.695312 29.648438 C 226.699219 30.871094 227.691406 31.867188 228.914062 31.867188 C 230.140625 31.863281 231.132812 30.867188 231.128906 29.644531 L 231.109375 12.0625 L 233.175781 14.070312 C 234.054688 14.921875 235.460938 14.90625 236.3125 14.027344 C 237.167969 13.148438 237.144531 11.746094 236.265625 10.890625 L 230.53125 5.304688 C 230.121094 4.859375 229.535156 4.582031 228.890625 4.582031 Z M 228.882812 4.582031 " fill-opacity="1" fill-rule="evenodd"/></g><g clip-path="url(#19dbe2c105)"><path fill="#102e4a" d="M 87.617188 257.40625 L 80.945312 268.9375 L 65.214844 259.847656 C 64.386719 259.367188 63.316406 259.652344 62.832031 260.480469 L 50.453125 281.9375 L 27.984375 268.929688 C 27.464844 268.621094 26.808594 268.621094 26.253906 268.925781 C 25.738281 269.234375 25.390625 269.808594 25.390625 270.425781 L 25.390625 326.484375 C 25.390625 327.4375 26.1875 328.210938 27.121094 328.210938 L 123.917969 328.210938 C 124.710938 328.210938 125.402344 327.6875 125.609375 326.933594 C 125.785156 326.179688 125.472656 325.378906 124.78125 324.988281 L 87.929688 303.636719 L 100.339844 282.128906 C 100.824219 281.304688 100.546875 280.246094 99.71875 279.769531 L 83.953125 270.667969 L 90.589844 259.148438 L 91.523438 262.425781 C 91.765625 263.34375 92.734375 263.878906 93.632812 263.621094 C 94.566406 263.359375 95.085938 262.402344 94.84375 261.484375 L 92.804688 254.257812 C 92.527344 253.355469 91.628906 252.820312 90.695312 253.054688 L 83.503906 254.878906 C 82.570312 255.113281 82.015625 256.054688 82.257812 256.980469 C 82.464844 257.902344 83.433594 258.464844 84.332031 258.226562 Z M 66.808594 295.394531 L 28.847656 273.425781 L 28.847656 324.753906 C 28.847656 324.753906 117.488281 324.753906 117.488281 324.753906 L 70.265625 297.394531 L 70.265625 312.957031 L 72.648438 310.617188 C 73.339844 309.953125 74.445312 309.964844 75.101562 310.652344 C 75.761719 311.332031 75.761719 312.425781 75.070312 313.09375 L 69.746094 318.28125 C 69.054688 318.933594 68.015625 318.933594 67.324219 318.28125 L 61.933594 313.042969 C 61.273438 312.375 61.242188 311.28125 61.898438 310.59375 C 62.589844 309.914062 63.660156 309.898438 64.351562 310.5625 L 66.808594 312.9375 Z M 53.425781 283.667969 L 84.921875 301.902344 L 96.46875 281.898438 L 82.226562 273.664062 L 76.519531 283.5625 C 76.035156 284.386719 74.964844 284.675781 74.136719 284.195312 C 73.304688 283.71875 73.027344 282.664062 73.511719 281.835938 L 79.21875 271.933594 L 64.972656 263.703125 Z M 53.425781 283.667969 " fill-opacity="1" fill-rule="evenodd"/></g><g clip-path="url(#77a70add62)"><path fill="#102e4a" d="M 185.78125 368.921875 L 183.546875 366.742188 C 182.871094 366.089844 181.792969 366.101562 181.132812 366.777344 C 180.480469 367.453125 180.492188 368.535156 181.167969 369.1875 L 186.289062 374.171875 C 186.949219 374.816406 188.003906 374.816406 188.667969 374.171875 L 193.839844 369.136719 C 194.511719 368.484375 194.527344 367.402344 193.871094 366.726562 C 193.214844 366.054688 192.136719 366.039062 191.460938 366.695312 L 189.191406 368.902344 L 189.214844 352.542969 C 189.214844 351.601562 188.449219 350.835938 187.507812 350.835938 C 186.566406 350.832031 185.804688 351.597656 185.804688 352.539062 Z M 163.308594 333.753906 L 143.785156 333.753906 C 142.84375 333.753906 142.082031 334.519531 142.082031 335.457031 L 142.082031 343.84375 C 142.082031 344.785156 142.84375 345.546875 143.785156 345.546875 L 231.214844 345.546875 C 232.15625 345.546875 232.917969 344.785156 232.917969 343.84375 L 232.917969 335.457031 C 232.917969 334.519531 232.15625 333.753906 231.214844 333.753906 L 211.6875 333.753906 L 211.6875 306.746094 C 211.6875 305.804688 210.925781 305.039062 209.984375 305.039062 L 165.011719 305.039062 C 164.070312 305.039062 163.308594 305.804688 163.308594 306.746094 Z M 145.492188 337.164062 L 229.507812 337.164062 L 229.507812 342.136719 C 229.507812 342.136719 145.492188 342.136719 145.492188 342.136719 C 145.492188 342.136719 145.492188 337.164062 145.492188 337.164062 Z M 208.277344 333.753906 L 208.277344 308.449219 C 208.277344 308.449219 166.71875 308.449219 166.71875 308.449219 L 166.71875 333.753906 Z M 185.777344 281.484375 L 185.796875 297.867188 C 185.800781 298.808594 186.5625 299.570312 187.503906 299.570312 C 188.445312 299.570312 189.210938 298.800781 189.207031 297.863281 L 189.191406 281.503906 L 191.457031 283.710938 C 192.128906 284.367188 193.210938 284.351562 193.867188 283.675781 C 194.523438 283.003906 194.511719 281.925781 193.835938 281.265625 L 188.660156 276.230469 C 188 275.589844 186.945312 275.589844 186.285156 276.230469 L 181.164062 281.21875 C 180.488281 281.871094 180.472656 282.953125 181.128906 283.628906 C 181.785156 284.300781 182.867188 284.316406 183.542969 283.660156 Z M 185.777344 281.484375 " fill-opacity="1" fill-rule="evenodd"/></g><g clip-path="url(#4f9a1343ed)"><path fill="#102e4a" d="M 36.027344 209.683594 L 30.550781 191.070312 C 30.28125 190.167969 29.328125 189.652344 28.445312 189.917969 L 8.652344 195.742188 C 7.734375 196.007812 7.226562 196.953125 7.496094 197.855469 L 13.007812 216.558594 L 7.667969 218.152344 C 6.75 218.421875 6.238281 219.367188 6.511719 220.265625 C 6.785156 221.164062 7.734375 221.675781 8.621094 221.410156 L 51.941406 208.488281 L 39.191406 229.085938 C 38.851562 229.609375 38.851562 230.269531 39.15625 230.808594 C 39.429688 231.347656 40.003906 231.683594 40.617188 231.683594 L 70.847656 231.683594 C 71.492188 231.683594 72.039062 231.347656 72.34375 230.808594 C 72.648438 230.269531 72.617188 229.609375 72.308594 229.085938 L 58.367188 206.574219 L 103.832031 193.003906 C 104.75 192.738281 105.261719 191.792969 104.988281 190.890625 C 104.714844 189.992188 103.765625 189.480469 102.878906 189.746094 Z M 55.75 208.808594 L 67.820312 228.28125 C 67.820312 228.28125 43.679688 228.28125 43.679688 228.28125 Z M 83.089844 220.894531 L 83.089844 219.445312 C 83.089844 218.503906 82.339844 217.742188 81.390625 217.742188 C 80.4375 217.742188 79.6875 218.503906 79.6875 219.445312 L 79.6875 224.800781 C 79.6875 225.738281 80.4375 226.5 81.390625 226.5 L 86.695312 226.5 C 87.644531 226.5 88.394531 225.738281 88.394531 224.800781 C 88.394531 223.859375 87.644531 223.097656 86.695312 223.097656 L 85.675781 223.097656 C 90.503906 217.140625 93.597656 209.710938 94.140625 201.597656 C 94.210938 200.660156 93.496094 199.847656 92.578125 199.78125 C 91.625 199.71875 90.808594 200.425781 90.742188 201.363281 C 90.230469 208.730469 87.441406 215.472656 83.089844 220.894531 Z M 32.761719 210.65625 L 27.765625 193.660156 C 27.765625 193.660156 11.238281 198.523438 11.238281 198.523438 L 16.269531 215.585938 Z M 33.273438 165.757812 C 26.199219 170.792969 20.894531 178.164062 18.480469 186.746094 C 18.242188 187.648438 18.753906 188.589844 19.671875 188.84375 C 20.589844 189.09375 21.507812 188.566406 21.78125 187.664062 C 23.957031 179.867188 28.785156 173.160156 35.210938 168.570312 L 35.007812 169.726562 C 34.871094 170.652344 35.515625 171.523438 36.433594 171.667969 C 37.351562 171.8125 38.238281 171.175781 38.375 170.25 L 39.191406 164.953125 C 39.359375 164.03125 38.714844 163.160156 37.796875 163.011719 L 32.558594 162.195312 C 31.605469 162.054688 30.757812 162.691406 30.585938 163.617188 C 30.449219 164.542969 31.097656 165.414062 32.015625 165.558594 Z M 33.273438 165.757812 " fill-opacity="1" fill-rule="evenodd"/></g><g clip-path="url(#c3f8430909)"><path fill="#102e4a" d="M 60.359375 140.746094 L 58.121094 138.566406 C 57.445312 137.910156 56.367188 137.925781 55.710938 138.601562 C 55.054688 139.277344 55.066406 140.355469 55.742188 141.011719 L 60.863281 145.992188 C 61.523438 146.640625 62.578125 146.640625 63.242188 145.992188 L 68.414062 140.960938 C 69.089844 140.304688 69.101562 139.222656 68.449219 138.550781 C 67.789062 137.878906 66.710938 137.859375 66.035156 138.519531 L 63.769531 140.726562 L 63.789062 124.363281 C 63.789062 123.421875 63.023438 122.660156 62.082031 122.660156 C 61.140625 122.65625 60.378906 123.421875 60.378906 124.359375 Z M 37.882812 105.574219 L 18.359375 105.574219 C 17.417969 105.574219 16.65625 106.339844 16.65625 107.28125 L 16.65625 115.664062 C 16.65625 116.605469 17.417969 117.371094 18.359375 117.371094 L 105.789062 117.371094 C 106.730469 117.371094 107.496094 116.605469 107.496094 115.664062 L 107.496094 107.28125 C 107.496094 106.339844 106.730469 105.574219 105.789062 105.574219 L 86.265625 105.574219 L 86.265625 78.566406 C 86.265625 77.625 85.5 76.863281 84.558594 76.863281 L 39.589844 76.863281 C 38.648438 76.863281 37.882812 77.625 37.882812 78.566406 Z M 20.066406 108.988281 L 104.085938 108.988281 L 104.085938 113.960938 C 104.085938 113.960938 20.066406 113.960938 20.066406 113.960938 C 20.066406 113.960938 20.066406 108.988281 20.066406 108.988281 Z M 82.855469 105.574219 L 82.855469 80.273438 C 82.855469 80.273438 41.292969 80.273438 41.292969 80.273438 L 41.292969 105.574219 Z M 60.355469 53.304688 L 60.371094 69.691406 C 60.375 70.632812 61.140625 71.390625 62.082031 71.390625 C 63.023438 71.390625 63.785156 70.625 63.78125 69.683594 L 63.765625 53.328125 L 66.03125 55.535156 C 66.703125 56.1875 67.785156 56.175781 68.445312 55.5 C 69.097656 54.828125 69.085938 53.746094 68.410156 53.089844 L 63.238281 48.054688 C 62.574219 47.414062 61.519531 47.414062 60.859375 48.054688 L 55.742188 53.039062 C 55.066406 53.695312 55.046875 54.777344 55.707031 55.453125 C 56.359375 56.125 57.441406 56.140625 58.117188 55.480469 Z M 60.355469 53.304688 " fill-opacity="1" fill-rule="evenodd"/></g><g clip-path="url(#9d591fe6f6)"><path fill="#102e4a" d="M 348.757812 127.441406 C 348.929688 127.046875 349.035156 126.632812 349.082031 126.207031 C 349.128906 125.777344 349.109375 125.351562 349.027344 124.929688 C 348.941406 124.507812 348.796875 124.105469 348.589844 123.730469 C 348.382812 123.351562 348.125 123.011719 347.816406 122.710938 L 326.84375 101.738281 L 339.617188 88.964844 C 339.816406 88.765625 339.996094 88.546875 340.15625 88.308594 C 340.3125 88.070312 340.445312 87.820312 340.554688 87.558594 C 340.664062 87.296875 340.746094 87.023438 340.800781 86.746094 C 340.855469 86.464844 340.882812 86.183594 340.882812 85.898438 C 340.882812 85.613281 340.855469 85.332031 340.800781 85.054688 C 340.746094 84.773438 340.664062 84.503906 340.554688 84.242188 C 340.445312 83.976562 340.3125 83.726562 340.15625 83.492188 C 339.996094 83.253906 339.816406 83.035156 339.617188 82.832031 L 313.101562 56.347656 C 312.691406 55.953125 312.21875 55.652344 311.6875 55.4375 C 311.15625 55.226562 310.605469 55.121094 310.035156 55.121094 C 309.464844 55.121094 308.914062 55.226562 308.382812 55.4375 C 307.855469 55.652344 307.382812 55.953125 306.96875 56.347656 L 294.199219 69.121094 L 282.335938 57.261719 C 282.03125 56.96875 281.691406 56.722656 281.316406 56.53125 C 280.941406 56.335938 280.542969 56.199219 280.128906 56.121094 C 279.710938 56.042969 279.292969 56.027344 278.875 56.070312 C 278.453125 56.117188 278.046875 56.21875 277.65625 56.382812 C 277.265625 56.546875 276.90625 56.761719 276.578125 57.027344 C 276.253906 57.296875 275.96875 57.605469 275.734375 57.957031 C 275.496094 58.304688 275.316406 58.683594 275.1875 59.085938 C 275.0625 59.492188 274.996094 59.902344 274.988281 60.328125 L 274.988281 125.777344 C 274.988281 126.0625 275.015625 126.34375 275.074219 126.625 C 275.128906 126.902344 275.210938 127.175781 275.320312 127.4375 C 275.429688 127.703125 275.5625 127.953125 275.71875 128.1875 C 275.878906 128.425781 276.058594 128.644531 276.261719 128.847656 C 276.460938 129.046875 276.679688 129.226562 276.917969 129.386719 C 277.15625 129.542969 277.40625 129.679688 277.667969 129.785156 C 277.929688 129.894531 278.203125 129.976562 278.480469 130.035156 C 278.761719 130.089844 279.042969 130.117188 279.328125 130.117188 L 344.722656 130.117188 C 345.152344 130.121094 345.574219 130.058594 345.988281 129.9375 C 346.402344 129.8125 346.789062 129.632812 347.148438 129.394531 C 347.507812 129.15625 347.824219 128.871094 348.097656 128.539062 C 348.371094 128.207031 348.59375 127.839844 348.757812 127.441406 Z M 309.007812 58.386719 C 309.144531 58.25 309.300781 58.144531 309.480469 58.070312 C 309.65625 57.996094 309.84375 57.960938 310.035156 57.960938 C 310.230469 57.960938 310.414062 57.996094 310.59375 58.070312 C 310.769531 58.144531 310.925781 58.25 311.0625 58.386719 L 337.546875 84.871094 C 337.683594 85.007812 337.789062 85.164062 337.863281 85.34375 C 337.9375 85.523438 337.976562 85.707031 337.976562 85.898438 C 337.976562 86.09375 337.9375 86.277344 337.863281 86.457031 C 337.789062 86.632812 337.683594 86.792969 337.546875 86.925781 L 324.773438 99.742188 L 296.238281 71.160156 Z M 277.882812 125.777344 L 277.882812 60.328125 C 277.882812 60.035156 277.964844 59.769531 278.128906 59.527344 C 278.292969 59.285156 278.507812 59.105469 278.777344 58.996094 C 278.964844 58.917969 279.15625 58.878906 279.355469 58.878906 C 279.75 58.875 280.082031 59.015625 280.355469 59.300781 L 292.96875 71.925781 C 293.023438 72.042969 293.09375 72.144531 293.183594 72.230469 L 323.703125 102.824219 C 323.800781 102.90625 323.90625 102.976562 324.023438 103.027344 L 345.71875 124.722656 C 345.925781 124.929688 346.054688 125.175781 346.109375 125.464844 C 346.164062 125.75 346.136719 126.03125 346.023438 126.296875 C 345.914062 126.570312 345.734375 126.785156 345.492188 126.949219 C 345.25 127.113281 344.984375 127.195312 344.691406 127.195312 L 279.328125 127.195312 C 279.140625 127.195312 278.957031 127.160156 278.78125 127.089844 C 278.605469 127.015625 278.449219 126.914062 278.316406 126.78125 C 278.179688 126.648438 278.074219 126.496094 278 126.324219 C 277.925781 126.148438 277.886719 125.96875 277.882812 125.777344 Z M 312.597656 46.222656 L 311.683594 46.222656 L 324.167969 58.535156 C 324.304688 58.667969 324.410156 58.824219 324.484375 59.003906 C 324.558594 59.183594 324.59375 59.367188 324.59375 59.558594 C 324.59375 59.753906 324.558594 59.9375 324.484375 60.117188 C 324.410156 60.292969 324.304688 60.453125 324.167969 60.585938 C 323.882812 60.871094 323.542969 61.007812 323.140625 61.007812 C 322.742188 61.011719 322.402344 60.878906 322.113281 60.601562 L 309.703125 48.410156 L 309.703125 49.117188 C 309.703125 49.308594 309.667969 49.492188 309.59375 49.671875 C 309.519531 49.847656 309.414062 50.003906 309.28125 50.140625 C 309.144531 50.277344 308.988281 50.378906 308.808594 50.453125 C 308.632812 50.527344 308.449219 50.5625 308.257812 50.5625 L 308.113281 50.5625 C 307.917969 50.546875 307.734375 50.488281 307.5625 50.398438 C 307.386719 50.304688 307.242188 50.183594 307.117188 50.027344 C 306.996094 49.875 306.90625 49.707031 306.855469 49.519531 C 306.800781 49.328125 306.785156 49.136719 306.8125 48.945312 L 307 46.457031 C 307.03125 46.082031 307.128906 45.726562 307.289062 45.390625 C 307.445312 45.050781 307.65625 44.75 307.921875 44.484375 C 308.1875 44.222656 308.488281 44.011719 308.824219 43.851562 C 309.164062 43.691406 309.519531 43.597656 309.890625 43.5625 L 312.394531 43.332031 C 312.585938 43.316406 312.773438 43.339844 312.957031 43.402344 C 313.136719 43.464844 313.300781 43.558594 313.445312 43.683594 C 313.589844 43.808594 313.707031 43.957031 313.792969 44.128906 C 313.878906 44.300781 313.929688 44.484375 313.941406 44.675781 C 313.957031 44.867188 313.929688 45.054688 313.871094 45.238281 C 313.808594 45.421875 313.714844 45.582031 313.589844 45.730469 C 313.464844 45.875 313.3125 45.988281 313.140625 46.074219 C 312.96875 46.160156 312.789062 46.210938 312.597656 46.222656 Z M 344.664062 113.152344 L 345.589844 113.078125 L 333.164062 100.839844 C 333.027344 100.707031 332.921875 100.550781 332.847656 100.375 C 332.769531 100.199219 332.730469 100.015625 332.730469 99.824219 C 332.726562 99.628906 332.761719 99.445312 332.835938 99.269531 C 332.90625 99.089844 333.007812 98.933594 333.144531 98.792969 C 333.277344 98.65625 333.433594 98.550781 333.609375 98.476562 C 333.785156 98.402344 333.96875 98.363281 334.160156 98.359375 C 334.355469 98.359375 334.539062 98.394531 334.714844 98.464844 C 334.894531 98.535156 335.050781 98.640625 335.191406 98.773438 L 347.554688 110.964844 L 347.554688 110.199219 C 347.570312 110.007812 347.621094 109.828125 347.707031 109.65625 C 347.796875 109.488281 347.910156 109.339844 348.054688 109.214844 C 348.199219 109.089844 348.363281 109 348.546875 108.9375 C 348.726562 108.878906 348.914062 108.855469 349.105469 108.871094 C 349.296875 108.882812 349.476562 108.933594 349.648438 109.023438 C 349.820312 109.109375 349.96875 109.226562 350.09375 109.375 C 350.21875 109.519531 350.3125 109.683594 350.371094 109.867188 C 350.429688 110.050781 350.449219 110.238281 350.433594 110.429688 L 350.246094 112.917969 C 350.21875 113.292969 350.125 113.652344 349.96875 113.992188 C 349.8125 114.332031 349.601562 114.636719 349.335938 114.902344 C 349.070312 115.167969 348.769531 115.378906 348.425781 115.535156 C 348.085938 115.691406 347.726562 115.785156 347.355469 115.8125 L 344.851562 116.015625 L 344.75 116.015625 C 344.558594 116.023438 344.371094 115.992188 344.191406 115.925781 C 344.011719 115.859375 343.851562 115.761719 343.710938 115.632812 C 343.570312 115.5 343.460938 115.347656 343.378906 115.175781 C 343.296875 115 343.253906 114.816406 343.246094 114.625 C 343.238281 114.433594 343.269531 114.25 343.335938 114.066406 C 343.402344 113.886719 343.5 113.726562 343.628906 113.585938 C 343.757812 113.445312 343.910156 113.335938 344.085938 113.253906 C 344.261719 113.171875 344.441406 113.128906 344.636719 113.121094 Z M 344.664062 113.152344 " fill-opacity="1" fill-rule="nonzero"/></g><g clip-path="url(#decce260b1)"><g clip-path="url(#7e984b32b0)"><g clip-path="url(#02b5714f10)"><path fill="#102e4a" d="M 284.449219 313.277344 L 267.949219 303.070312 C 267.144531 302.582031 266.089844 302.832031 265.609375 303.617188 L 254.757812 321.164062 C 254.25 321.976562 254.503906 323.019531 255.304688 323.507812 L 271.890625 333.761719 L 268.980469 338.511719 C 268.472656 339.324219 268.726562 340.367188 269.53125 340.859375 C 270.332031 341.34375 271.382812 341.089844 271.863281 340.300781 L 295.5 301.765625 L 299.753906 325.617188 C 299.847656 326.234375 300.289062 326.726562 300.875 326.921875 C 301.4375 327.144531 302.089844 327.003906 302.546875 326.597656 L 325.058594 306.421875 C 325.542969 305.992188 325.722656 305.378906 325.589844 304.773438 C 325.460938 304.167969 324.996094 303.699219 324.417969 303.515625 L 299.007812 296.050781 L 323.8125 255.605469 C 324.320312 254.796875 324.066406 253.75 323.261719 253.257812 C 322.460938 252.773438 321.40625 253.023438 320.929688 253.816406 Z M 298.550781 299.460938 L 320.539062 305.910156 C 320.539062 305.910156 302.558594 322.023438 302.558594 322.023438 Z M 326.976562 290.21875 L 326.007812 289.136719 C 325.382812 288.4375 324.316406 288.371094 323.609375 289.007812 C 322.898438 289.640625 322.851562 290.707031 323.476562 291.40625 L 327.050781 295.394531 C 327.675781 296.09375 328.742188 296.164062 329.453125 295.527344 L 333.402344 291.988281 C 334.113281 291.351562 334.160156 290.285156 333.535156 289.585938 C 332.90625 288.886719 331.84375 288.820312 331.132812 289.453125 L 330.375 290.136719 C 329.992188 282.476562 327.339844 274.878906 322.328125 268.472656 C 321.753906 267.726562 320.679688 267.601562 319.953125 268.164062 C 319.199219 268.75 319.066406 269.824219 319.640625 270.566406 C 324.175781 276.394531 326.601562 283.277344 326.976562 290.21875 Z M 282.664062 316.183594 L 267.601562 306.859375 C 267.601562 306.859375 258.539062 321.511719 258.539062 321.511719 L 273.671875 330.859375 Z M 253.082031 282.402344 C 251.175781 290.875 252.144531 299.90625 256.070312 307.90625 C 256.5 308.738281 257.503906 309.097656 258.359375 308.671875 C 259.210938 308.25 259.542969 307.242188 259.140625 306.386719 C 255.558594 299.128906 254.679688 290.914062 256.402344 283.203125 L 257.019531 284.203125 C 257.539062 284.984375 258.601562 285.199219 259.378906 284.695312 C 260.160156 284.191406 260.394531 283.125 259.878906 282.34375 L 256.953125 277.855469 C 256.460938 277.054688 255.398438 276.839844 254.617188 277.339844 L 250.171875 280.230469 C 249.367188 280.757812 249.160156 281.796875 249.652344 282.605469 C 250.167969 283.382812 251.230469 283.601562 252.011719 283.097656 Z M 253.082031 282.402344 " fill-opacity="1" fill-rule="evenodd"/></g></g></g><g clip-path="url(#5a15324d4c)"><g clip-path="url(#699a26e6c3)"><g clip-path="url(#2278c19a77)"><path fill="#102e4a" d="M 295.332031 172.6875 L 307.277344 178.59375 L 299.226562 194.882812 C 298.804688 195.742188 299.15625 196.792969 300.011719 197.222656 L 322.230469 208.175781 L 310.714844 231.445312 C 310.4375 231.980469 310.480469 232.636719 310.824219 233.167969 C 311.164062 233.667969 311.761719 233.972656 312.375 233.933594 L 368.316406 230.285156 C 369.265625 230.222656 369.988281 229.378906 369.925781 228.449219 L 363.628906 131.855469 C 363.578125 131.0625 363.007812 130.40625 362.242188 130.25 C 361.480469 130.125 360.703125 130.488281 360.355469 131.203125 L 341.445312 169.367188 L 319.179688 158.382812 C 318.320312 157.953125 317.285156 158.296875 316.863281 159.15625 L 308.804688 175.480469 L 296.878906 169.605469 L 300.089844 168.460938 C 300.992188 168.160156 301.460938 167.160156 301.144531 166.28125 C 300.820312 165.367188 299.835938 164.910156 298.933594 165.210938 L 291.855469 167.71875 C 290.976562 168.050781 290.5 168.984375 290.789062 169.898438 L 293.078125 176.957031 C 293.375 177.871094 294.347656 178.363281 295.257812 178.0625 C 296.164062 177.792969 296.660156 176.792969 296.367188 175.910156 Z M 334.597656 190.980469 L 315.144531 230.289062 L 366.363281 226.949219 C 366.363281 226.949219 360.597656 138.5 360.597656 138.5 L 336.371094 187.402344 L 351.894531 186.390625 L 349.40625 184.160156 C 348.699219 183.515625 348.640625 182.410156 349.28125 181.710938 C 349.917969 181.011719 351.011719 180.9375 351.722656 181.585938 L 357.242188 186.558594 C 357.941406 187.207031 358.007812 188.242188 357.398438 188.976562 L 352.523438 194.699219 C 351.902344 195.398438 350.808594 195.503906 350.085938 194.890625 C 349.359375 194.246094 349.273438 193.175781 349.894531 192.445312 L 352.105469 189.839844 Z M 323.765625 205.09375 L 339.914062 172.480469 L 319.199219 162.261719 L 311.910156 177.011719 L 322.15625 182.058594 C 323.011719 182.488281 323.367188 183.539062 322.945312 184.398438 C 322.523438 185.257812 321.488281 185.601562 320.628906 185.171875 L 310.378906 180.125 L 303.09375 194.871094 Z M 323.765625 205.09375 " fill-opacity="1" fill-rule="evenodd"/></g></g></g><g clip-path="url(#44ae104802)"><path fill="#ffffff" d="M 88.964844 364.632812 L 125.894531 364.632812 L 125.894531 385.367188 L 88.964844 385.367188 Z M 88.964844 364.632812 " fill-opacity="1" fill-rule="nonzero"/></g><g clip-path="url(#4a0c059bfe)"><g clip-path="url(#dd97e86f4d)"><path fill="#ffffff" d="M 98.925781 356.3125 L 134.226562 367.160156 L 128.136719 386.976562 L 92.835938 376.132812 Z M 98.925781 356.3125 " fill-opacity="1" fill-rule="nonzero"/></g></g><g clip-path="url(#c492c28e65)"><g clip-path="url(#358d723122)"><path fill="#ffffff" d="M 140.589844 -13.144531 L 175.460938 -19.683594 L 178.824219 -1.757812 L 143.949219 4.78125 Z M 140.589844 -13.144531 " fill-opacity="1" fill-rule="nonzero"/></g></g><g clip-path="url(#a6a7bffd04)"><g clip-path="url(#6f170e9cba)"><path fill="#ffffff" d="M 105.0625 -3.722656 L 139.941406 -15.855469 L 146.753906 3.726562 L 111.871094 15.859375 Z M 105.0625 -3.722656 " fill-opacity="1" fill-rule="nonzero"/></g></g></svg>