<svg xmlns="http://www.w3.org/2000/svg" xmlns:xlink="http://www.w3.org/1999/xlink" width="500" zoomAndPan="magnify" viewBox="0 0 375 374.999991" height="500" preserveAspectRatio="xMidYMid meet" version="1.0"><defs><clipPath id="60a19e1324"><path d="M 223 98 L 362 98 L 362 158 L 223 158 Z M 223 98 " clip-rule="nonzero"/></clipPath><clipPath id="488de1299a"><path d="M 225.769531 92.597656 L 365.617188 146.847656 L 359.648438 162.230469 L 219.800781 107.980469 Z M 225.769531 92.597656 " clip-rule="nonzero"/></clipPath><clipPath id="b55cf3eea5"><path d="M 225.769531 92.597656 L 365.617188 146.847656 L 359.648438 162.230469 L 219.800781 107.980469 Z M 225.769531 92.597656 " clip-rule="nonzero"/></clipPath><clipPath id="cc05b9a4e1"><path d="M 32 45 L 218 45 L 218 83 L 32 83 Z M 32 45 " clip-rule="nonzero"/></clipPath><clipPath id="1e0551678d"><path d="M 29.53125 71.972656 L 215.34375 33.507812 L 219.597656 54.074219 L 33.789062 92.535156 Z M 29.53125 71.972656 " clip-rule="nonzero"/></clipPath><clipPath id="cd106883b6"><path d="M 29.53125 71.972656 L 215.34375 33.507812 L 219.597656 54.074219 L 33.789062 92.535156 Z M 29.53125 71.972656 " clip-rule="nonzero"/></clipPath></defs><path fill="#102e4a" d="M 126.988281 308.484375 C 127.003906 308.511719 127.019531 308.539062 127.015625 308.542969 C 127.09375 308.625 127.148438 308.625 127.171875 308.632812 C 127.289062 308.683594 127.378906 308.667969 127.480469 308.238281 C 127.566406 307.976562 127.402344 307.453125 127.453125 307.210938 C 127.453125 307.210938 127.667969 304.0625 127.667969 304.0625 C 127.777344 302.902344 127.914062 301.738281 128.054688 300.574219 C 128.28125 298.824219 128.53125 297.074219 128.808594 295.335938 C 129.410156 291.21875 131.289062 282.710938 134.550781 276.402344 C 136.8125 272.039062 139.65625 268.644531 143.421875 269.109375 C 144.789062 269.285156 145.839844 270.066406 146.730469 271.09375 C 148.175781 272.761719 149.203125 275.082031 150.066406 276.945312 C 151.167969 279.289062 151.890625 281.738281 152.421875 284.25 C 153.667969 290.257812 153.730469 296.570312 154.828125 302.605469 C 155.226562 304.773438 155.683594 307.457031 156.707031 309.65625 C 157.53125 311.359375 158.667969 312.777344 160.316406 313.585938 C 161.734375 314.285156 163.109375 314.121094 164.375 313.4375 C 166.628906 312.257812 168.582031 309.253906 169.726562 307.492188 C 170.953125 305.664062 172.066406 303.785156 173.070312 301.835938 C 174.066406 299.898438 174.957031 297.894531 175.734375 295.820312 C 176.597656 293.488281 177.292969 290.648438 178.746094 288.75 C 179.539062 287.667969 180.644531 286.96875 182.253906 287.03125 C 183.644531 287.085938 184.632812 287.949219 185.375 289.066406 C 186.21875 290.332031 186.703125 291.910156 186.917969 293.347656 C 187.441406 296.910156 187.597656 301.835938 188.933594 305.894531 C 189.953125 309.007812 191.628906 311.625 194.515625 312.976562 C 196.292969 313.8125 197.835938 313.773438 199.136719 313.195312 C 200.9375 312.421875 202.390625 310.59375 203.492188 308.542969 C 204.882812 305.949219 206.84375 300.796875 209.1875 297.148438 C 210.226562 295.503906 211.347656 294.183594 212.53125 293.6875 C 214.546875 292.871094 216.007812 293.980469 217.1875 295.628906 C 219.195312 298.441406 220.425781 302.808594 221.433594 304.925781 C 222.449219 306.945312 223.710938 308.273438 225.101562 308.78125 C 226.660156 309.347656 228.476562 308.992188 230.363281 307.046875 C 230.804688 306.605469 231.222656 306.144531 231.597656 305.65625 C 232 305.179688 232.355469 304.667969 232.675781 304.121094 C 233.203125 303.277344 233.664062 302.394531 234.082031 301.484375 C 234.460938 300.601562 234.820312 299.703125 235.152344 298.800781 C 235.648438 297.386719 236.117188 295.976562 236.660156 294.582031 C 237.203125 293.1875 237.765625 291.804688 238.359375 290.429688 C 238.496094 290.175781 238.382812 289.859375 238.132812 289.730469 C 237.878906 289.605469 237.5625 289.703125 237.449219 289.964844 L 233.082031 297.933594 C 232.621094 298.949219 232.179688 299.980469 231.667969 300.972656 C 231.363281 301.621094 231.011719 302.25 230.636719 302.859375 C 230.359375 303.3125 230.039062 303.734375 229.722656 304.152344 C 229.378906 304.566406 229.015625 304.960938 228.652344 305.351562 C 227.636719 306.359375 226.769531 306.769531 225.929688 306.457031 C 225.046875 306.128906 224.332031 305.144531 223.683594 303.816406 C 222.355469 301.226562 220.589844 295.457031 217.6875 292.847656 C 216.046875 291.375 214.097656 290.75 211.738281 291.792969 C 210.246094 292.421875 208.808594 294.023438 207.511719 296.078125 C 205.152344 299.769531 203.140625 304.964844 201.695312 307.5625 C 200.957031 308.890625 200.085938 310.148438 198.996094 310.878906 C 198.027344 311.515625 196.863281 311.640625 195.496094 310.957031 C 193.238281 309.824219 192.035156 307.648438 191.277344 305.148438 C 190.097656 301.1875 190.113281 296.433594 189.6875 292.96875 C 189.371094 290.738281 188.503906 288.230469 186.992188 286.523438 C 185.792969 285.183594 184.253906 284.316406 182.332031 284.265625 C 179.691406 284.214844 177.890625 285.375 176.597656 287.160156 C 175.074219 289.292969 174.292969 292.394531 173.386719 294.96875 C 172.667969 296.960938 171.863281 298.894531 170.949219 300.769531 C 170.003906 302.648438 168.96875 304.476562 167.84375 306.261719 C 166.992188 307.597656 165.714844 309.800781 164.117188 311.0625 C 163.242188 311.75 162.289062 312.160156 161.257812 311.652344 C 160.042969 311.058594 159.257812 309.984375 158.679688 308.746094 C 157.699219 306.699219 157.324219 304.21875 156.960938 302.21875 C 155.871094 296.171875 155.792969 289.828125 154.554688 283.804688 C 154.011719 281.132812 153.222656 278.507812 152.050781 276.011719 C 151.085938 273.992188 149.9375 271.5 148.328125 269.695312 C 147.074219 268.289062 145.539062 267.277344 143.660156 267.066406 C 140.0625 266.667969 137.015625 268.917969 134.601562 272.539062 C 130.230469 279.105469 127.890625 290.167969 127.242188 295.109375 C 127.027344 296.570312 126.839844 298.046875 126.703125 299.527344 C 126.539062 301.003906 126.425781 302.492188 126.371094 303.980469 L 126.324219 307.183594 C 126.371094 307.460938 126.503906 307.992188 126.761719 308.304688 C 126.832031 308.398438 126.914062 308.457031 126.988281 308.484375 Z M 126.988281 308.484375 " fill-opacity="1" fill-rule="evenodd"/><path fill="#102e4a" d="M 119.726562 299.246094 C 119.742188 299.335938 119.761719 299.414062 119.757812 299.425781 L 119.738281 299.476562 C 119.707031 299.480469 119.699219 299.496094 119.695312 299.511719 C 119.671875 299.5625 119.71875 299.519531 119.738281 299.476562 C 119.925781 299.292969 120.960938 299.59375 121.3125 299.621094 L 124.421875 299.667969 L 133.535156 299.949219 C 137.113281 300.078125 140.660156 300.148438 144.195312 300.183594 C 149.519531 300.242188 154.828125 300.21875 160.179688 300.148438 C 169.929688 300.105469 179.738281 300.121094 189.558594 300.109375 C 196.082031 300.097656 202.609375 300.066406 209.140625 300.097656 C 216.753906 300.128906 224.371094 300.273438 231.96875 300.398438 C 234.585938 300.445312 237.203125 300.550781 239.800781 300.503906 C 240.46875 300.5 241.101562 300.441406 241.777344 300.421875 C 242.054688 300.421875 242.316406 300.195312 242.332031 299.898438 C 242.347656 299.601562 242.101562 299.34375 241.800781 299.332031 C 241.167969 299.253906 240.519531 299.148438 239.855469 299.082031 C 237.265625 298.847656 234.640625 298.765625 232.023438 298.660156 C 224.421875 298.347656 216.78125 298.25 209.15625 298.1875 C 202.613281 298.125 196.074219 298.113281 189.554688 298.183594 C 179.726562 298.277344 169.933594 298.546875 160.167969 298.757812 C 155.710938 298.808594 151.289062 298.832031 146.867188 298.800781 C 142.445312 298.761719 138.023438 298.667969 133.597656 298.511719 L 124.394531 298.503906 L 121.34375 298.570312 C 120.945312 298.59375 119.925781 298.578125 119.65625 298.691406 C 119.511719 298.773438 119.457031 298.773438 119.472656 298.800781 C 119.445312 298.867188 119.289062 300.007812 119.699219 299.238281 Z M 119.726562 299.246094 " fill-opacity="1" fill-rule="evenodd"/><path fill="#102e4a" d="M 234.792969 300.089844 C 235.019531 299.953125 235.234375 299.902344 235.453125 299.90625 C 235.566406 299.90625 235.644531 299.976562 235.773438 300.003906 C 236.003906 300.042969 236.238281 300.078125 236.511719 300.15625 C 237.105469 300.320312 237.738281 300.53125 238.402344 300.597656 C 240.882812 300.824219 243.429688 301.214844 245.96875 301.25 C 247.070312 301.265625 248.148438 301.148438 249.238281 301.054688 C 249.460938 301.054688 249.652344 300.871094 249.640625 300.636719 C 249.652344 300.417969 249.457031 300.230469 249.234375 300.234375 C 248.160156 300.144531 247.097656 299.972656 246.023438 299.890625 C 243.503906 299.691406 240.949219 299.632812 238.484375 299.496094 C 237.5 299.464844 236.53125 298.945312 235.734375 299.125 C 235.394531 299.207031 235.167969 299.40625 234.914062 299.675781 C 234.824219 299.757812 234.714844 299.824219 234.640625 299.933594 C 234.59375 299.976562 234.589844 300.046875 234.625 300.09375 C 234.6875 300.144531 234.746094 300.136719 234.792969 300.089844 Z M 234.792969 300.089844 " fill-opacity="1" fill-rule="evenodd"/><path fill="#102e4a" d="M 240.238281 299.742188 C 240.214844 299.734375 240.1875 299.730469 240.183594 299.742188 C 240.113281 299.710938 239.972656 299.90625 240.265625 300.132812 C 240.410156 300.25 240.78125 300.28125 240.808594 300.285156 C 240.808594 300.285156 242.984375 300.574219 242.984375 300.574219 C 243.816406 300.640625 244.648438 300.707031 245.5 300.730469 C 246.761719 300.753906 248.011719 300.691406 249.261719 300.75 C 249.316406 300.75 249.386719 300.710938 249.390625 300.640625 C 249.390625 300.570312 249.359375 300.519531 249.28125 300.507812 C 248.460938 300.351562 247.640625 300.199219 246.789062 300.113281 C 245.539062 299.988281 244.269531 299.976562 243.035156 299.878906 L 240.894531 299.765625 C 240.84375 299.753906 240.558594 299.636719 240.386719 299.660156 C 240.320312 299.679688 240.257812 299.699219 240.238281 299.742188 Z M 240.238281 299.742188 " fill-opacity="1" fill-rule="evenodd"/><path fill="#102e4a" d="M 140.78125 327.4375 C 140.792969 327.476562 140.816406 327.488281 140.84375 327.484375 C 141.042969 327.609375 141.183594 327.539062 141.078125 327.332031 C 141.148438 327.230469 141.214844 327.074219 141.273438 326.878906 C 141.320312 326.636719 141.316406 326.328125 141.3125 326.007812 C 141.292969 325.472656 141.242188 324.949219 141.25 324.796875 C 141.25 324.796875 141.648438 318.644531 141.648438 318.644531 C 141.714844 316.804688 141.753906 314.976562 141.761719 313.144531 C 141.761719 308.882812 141.648438 304.628906 141.648438 300.367188 C 141.632812 295.425781 141.703125 290.484375 141.777344 285.535156 C 141.886719 278.105469 142.078125 270.6875 142.238281 263.273438 C 142.3125 260 142.585938 256.726562 142.605469 253.445312 C 142.628906 251.90625 142.597656 250.363281 142.453125 248.824219 C 142.382812 248.152344 142.273438 247.507812 142.167969 246.84375 C 142.152344 246.617188 141.976562 246.449219 141.753906 246.457031 C 141.527344 246.464844 141.359375 246.660156 141.351562 246.871094 C 141.316406 247.535156 141.234375 248.179688 141.199219 248.84375 C 141.078125 250.351562 141.007812 251.875 140.933594 253.398438 C 140.773438 256.679688 140.640625 259.964844 140.5625 263.242188 C 140.402344 270.652344 140.207031 278.078125 140.097656 285.503906 C 140.046875 290.46875 140 295.417969 140.011719 300.363281 C 140.039062 304.625 140.179688 308.882812 140.183594 313.140625 C 140.183594 314.953125 140.152344 316.765625 140.09375 318.582031 L 140.023438 324.75 C 140.027344 324.929688 140.070312 325.546875 140.179688 326.128906 C 140.261719 326.453125 140.324219 326.757812 140.449219 326.992188 C 140.550781 327.203125 140.679688 327.355469 140.78125 327.4375 Z M 140.78125 327.4375 " fill-opacity="1" fill-rule="evenodd"/><path fill="#102e4a" d="M 141.625 246.816406 C 141.667969 246.847656 141.722656 246.851562 141.761719 246.824219 C 141.828125 246.792969 141.835938 246.71875 141.800781 246.664062 C 141.84375 246.570312 141.75 246.589844 141.753906 246.523438 C 141.714844 246.15625 141.777344 246.269531 141.074219 246.554688 C 140.976562 246.589844 140.929688 246.699219 140.847656 246.820312 C 140.46875 247.375 140.230469 248.640625 140.183594 248.753906 C 139.972656 249.4375 139.699219 250.082031 139.421875 250.71875 C 139.300781 251.003906 139.207031 251.285156 139.085938 251.570312 C 138.882812 251.972656 138.714844 252.371094 138.488281 252.765625 C 138.363281 252.925781 138.378906 253.152344 138.542969 253.285156 C 138.707031 253.417969 138.941406 253.394531 139.0625 253.234375 C 139.6875 252.6875 140.234375 252.117188 140.695312 251.441406 C 141.125 250.765625 141.398438 249.992188 141.652344 249.207031 C 141.664062 249.121094 141.820312 248.5625 141.921875 247.996094 C 141.957031 247.71875 141.960938 247.453125 141.996094 247.246094 C 142.015625 247.195312 141.96875 247.113281 142.003906 247.097656 C 142.328125 247.050781 141.746094 246.796875 141.691406 246.917969 C 141.691406 246.984375 141.640625 246.84375 141.597656 246.882812 C 141.585938 246.910156 141.636719 246.855469 141.625 246.816406 Z M 141.625 246.816406 " fill-opacity="1" fill-rule="evenodd"/><path fill="#102e4a" d="M 142.148438 247.792969 C 142.101562 247.84375 142.0625 247.859375 142.003906 247.738281 C 141.996094 247.695312 141.933594 247.78125 141.910156 247.703125 C 141.898438 247.667969 141.824219 247.648438 141.773438 247.632812 C 141.777344 247.628906 141.777344 247.625 141.773438 247.632812 C 141.722656 247.625 141.746094 247.628906 141.773438 247.632812 C 141.742188 247.640625 141.625 247.660156 141.628906 247.78125 C 141.628906 247.90625 141.695312 248.070312 141.757812 248.25 C 141.945312 248.71875 142.296875 249.257812 142.304688 249.300781 C 142.652344 249.785156 142.945312 250.261719 143.289062 250.6875 C 143.671875 251.152344 144.082031 251.558594 144.582031 251.945312 C 144.75 252.132812 145.074219 252.148438 145.269531 251.957031 C 145.484375 251.777344 145.484375 251.457031 145.292969 251.257812 L 143.875 248.421875 C 143.84375 248.371094 143.589844 247.800781 143.292969 247.390625 C 143.148438 247.207031 143.027344 247.042969 142.890625 246.972656 C 142.660156 246.859375 142.644531 246.835938 142.554688 246.847656 C 142.347656 246.878906 142.382812 246.664062 142.304688 246.71875 C 142.222656 246.78125 142.203125 246.636719 142.148438 246.699219 C 142.058594 246.84375 141.902344 246.621094 141.894531 246.773438 C 141.84375 247.082031 141.507812 247.023438 141.691406 247.242188 C 141.75 247.300781 141.6875 247.320312 141.742188 247.382812 C 141.855469 247.511719 142 247.683594 142.148438 247.792969 Z M 142.457031 247.332031 C 142.46875 247.371094 142.300781 247.375 142.316406 247.464844 C 142.332031 247.5625 142.378906 247.640625 142.429688 247.660156 C 142.453125 247.667969 142.453125 247.667969 142.472656 247.683594 C 142.472656 247.621094 142.398438 247.472656 142.519531 247.453125 C 142.550781 247.4375 142.496094 247.371094 142.457031 247.332031 Z M 142.457031 247.332031 " fill-opacity="1" fill-rule="evenodd"/><path fill="#102e4a" d="M 248.425781 300.105469 L 248.292969 300.222656 L 245.722656 302.855469 C 245.539062 303.023438 245.527344 303.308594 245.699219 303.492188 C 245.871094 303.675781 246.144531 303.683594 246.328125 303.511719 L 249.296875 301.503906 L 250.011719 301.003906 C 250.078125 300.976562 250.152344 300.929688 250.203125 300.878906 L 250.179688 300.867188 L 250.292969 300.800781 L 250.203125 300.878906 C 255.546875 303.410156 254.964844 300.898438 250.578125 299.550781 L 250.066406 299.324219 C 250.027344 299.285156 250.011719 299.257812 249.945312 299.21875 C 249.855469 299.164062 249.777344 299.15625 249.695312 299.160156 L 246.007812 297.535156 L 245.945312 297.492188 C 245.769531 297.320312 245.621094 297.210938 245.4375 297.125 C 245.042969 296.949219 244.785156 297.226562 244.511719 297.539062 C 244.4375 297.644531 244.394531 298.003906 244.746094 298.34375 C 244.882812 298.480469 245.316406 298.765625 245.335938 298.78125 Z M 249.949219 300.757812 L 249.914062 300.777344 C 249.792969 300.800781 249.796875 300.859375 249.835938 300.957031 C 249.863281 301.023438 249.941406 301.03125 250.011719 301.003906 L 250.179688 300.867188 L 249.996094 300.78125 Z M 245.550781 298.148438 C 245.492188 298.164062 245.460938 298.171875 245.410156 298.152344 C 245.429688 298.175781 245.472656 298.207031 245.480469 298.191406 C 245.488281 298.167969 245.519531 298.160156 245.550781 298.148438 Z M 245.550781 298.148438 " fill-opacity="1" fill-rule="evenodd"/><path fill="#102e4a" d="M 141.945312 237.9375 C 141.96875 237.949219 142.058594 237.863281 142.070312 237.832031 C 142.140625 237.800781 142.144531 237.726562 142.085938 237.671875 C 142.050781 237.628906 141.992188 237.628906 141.925781 237.660156 C 141.910156 237.695312 141.8125 237.726562 141.78125 237.734375 C 141.65625 237.835938 141.605469 237.949219 141.855469 237.949219 C 141.882812 237.949219 141.914062 237.945312 141.945312 237.9375 Z M 141.941406 237.746094 C 141.957031 237.714844 141.980469 237.722656 141.871094 237.722656 C 141.898438 237.722656 141.921875 237.730469 141.941406 237.746094 Z M 141.941406 237.746094 " fill-opacity="1" fill-rule="evenodd"/><path fill="#102e4a" d="M 143.597656 239.378906 C 143.492188 239.566406 143.386719 239.742188 143.25 239.871094 C 143.1875 239.949219 143.144531 240.050781 143.070312 240.035156 C 142.847656 239.96875 142.730469 239.789062 142.625 239.578125 C 142.339844 239.015625 142.316406 238.234375 142.238281 237.773438 C 142.1875 237.566406 142 237.421875 142.082031 237.425781 C 142.164062 237.425781 142.113281 237.417969 142.058594 237.414062 L 142.0625 237.402344 C 142.109375 237.359375 142.136719 237.296875 142.078125 237.238281 C 142.074219 236.984375 141.769531 236.988281 141.480469 237.535156 C 141.28125 237.863281 141.320312 238.550781 141.410156 239.179688 C 141.53125 240.0625 142.023438 240.855469 142.757812 241.082031 C 143.121094 241.199219 143.464844 241.109375 143.816406 240.878906 C 143.941406 241.621094 144.074219 242.339844 144.0625 242.945312 C 144.042969 243.515625 143.789062 243.90625 142.90625 244.023438 C 142.59375 244.046875 142.339844 244.316406 142.367188 244.632812 C 142.375 244.945312 142.65625 245.191406 142.96875 245.171875 C 144.164062 245.230469 144.835938 244.828125 145.230469 244.300781 C 145.792969 243.507812 145.605469 242.195312 145.28125 240.820312 C 145.171875 240.304688 145.035156 239.777344 144.976562 239.273438 C 145.15625 238.851562 145.320312 238.46875 145.390625 238.238281 C 145.554688 237.855469 145.859375 236.886719 145.820312 236.65625 C 145.773438 236.382812 145.609375 236.242188 145.453125 236.15625 C 145.320312 236.078125 145.007812 235.972656 144.652344 236.28125 C 143.757812 237.007812 143.53125 238.050781 143.570312 239.183594 Z M 143.597656 239.378906 " fill-opacity="1" fill-rule="evenodd"/><path fill="#102e4a" d="M 253.695312 297.007812 C 253.441406 296.953125 253.414062 297.085938 253.632812 297.222656 C 253.613281 297.332031 253.695312 297.394531 253.816406 297.308594 C 253.863281 297.328125 253.9375 297.351562 254.011719 297.371094 C 254.136719 297.402344 254.265625 297.488281 254.46875 297.53125 C 254.824219 297.601562 255.316406 297.628906 255.46875 298.113281 C 255.789062 298.910156 255.796875 299.667969 255.589844 300.339844 C 255.4375 300.824219 255.128906 301.226562 254.808594 301.648438 C 254.667969 301.84375 254.578125 302.058594 254.414062 302.246094 C 254.148438 302.410156 254.109375 302.761719 254.28125 303.007812 C 254.453125 303.25 254.789062 303.308594 255.03125 303.132812 C 255.335938 303.003906 255.613281 302.875 255.867188 302.671875 C 256.46875 302.175781 256.78125 301.445312 256.980469 300.726562 C 257.222656 299.773438 257.125 298.703125 256.644531 297.628906 C 256.304688 296.941406 255.753906 296.605469 255.144531 296.539062 C 254.773438 296.496094 254.417969 296.484375 254.171875 296.613281 C 253.925781 296.730469 253.78125 296.875 253.695312 297.007812 Z M 253.695312 297.007812 " fill-opacity="1" fill-rule="evenodd"/><path fill="#102e4a" d="M 259.21875 296.542969 C 259.144531 296.265625 258.964844 295.710938 258.925781 296.386719 C 258.929688 296.441406 258.839844 296.394531 258.765625 296.433594 C 258.417969 296.601562 257.925781 297.03125 257.832031 297.121094 C 257.429688 297.542969 257.035156 298.015625 256.699219 298.53125 C 256.429688 298.910156 256.246094 299.332031 256.113281 299.773438 C 255.875 300.710938 256.25 301.523438 256.957031 302.136719 C 257.238281 302.382812 257.578125 302.625 257.933594 302.765625 C 258.503906 302.988281 259.046875 303.015625 259.433594 303.148438 C 259.625 303.28125 259.894531 303.238281 260.03125 303.050781 C 260.167969 302.859375 260.113281 302.59375 259.921875 302.460938 C 259.609375 302.09375 259.175781 301.617188 258.648438 301.164062 C 258.425781 300.972656 258.164062 300.808594 257.980469 300.585938 C 257.894531 300.46875 257.785156 300.335938 257.828125 300.167969 C 257.898438 299.808594 258.042969 299.472656 258.234375 299.15625 C 258.457031 298.773438 258.722656 298.414062 258.976562 298.078125 C 259.042969 297.988281 259.394531 297.621094 259.535156 297.292969 C 259.589844 297.164062 259.621094 297.085938 259.609375 296.992188 C 259.59375 296.832031 259.609375 296.925781 259.542969 296.824219 C 259.300781 296.421875 259.515625 296.695312 259.445312 296.597656 C 259.390625 296.527344 259.40625 296.425781 259.273438 296.480469 C 259.242188 296.488281 259.230469 296.515625 259.21875 296.542969 Z M 259.246094 296.675781 C 259.261719 296.703125 259.308594 296.722656 259.371094 296.703125 C 259.3125 296.714844 259.261719 296.699219 259.246094 296.675781 Z M 259.246094 296.675781 " fill-opacity="1" fill-rule="evenodd"/><path fill="#102e4a" d="M 253.304688 303.410156 C 253.238281 303.433594 253.175781 303.507812 253.171875 303.589844 C 252.886719 303.734375 252.824219 303.6875 253.496094 304 C 253.75 304.117188 254.441406 303.730469 254.535156 303.703125 C 254.742188 303.609375 255.804688 302.8125 256.453125 302.082031 C 256.730469 301.753906 256.851562 301.21875 256.996094 301.332031 C 257.035156 301.367188 256.976562 301.3125 256.941406 301.269531 C 256.964844 301.28125 257.015625 301.289062 257.046875 301.273438 C 257.089844 301.242188 257.121094 301.171875 257.089844 301.113281 C 257.082031 301.066406 256.714844 301.015625 256.234375 301.292969 C 255.472656 301.714844 254.414062 302.765625 254.1875 302.839844 C 254.117188 302.867188 253.648438 302.996094 253.417969 303.144531 C 253.378906 303.171875 253.417969 303.269531 253.375 303.242188 C 253.074219 303.039062 253.152344 303.246094 253.304688 303.410156 Z M 253.304688 303.410156 " fill-opacity="1" fill-rule="evenodd"/><path fill="#102e4a" d="M 128.980469 308.101562 C 128.921875 308.113281 128.914062 308.132812 128.949219 308.113281 C 128.976562 308.117188 128.976562 308.113281 128.980469 308.101562 L 128.988281 308.085938 C 128.980469 308.105469 128.972656 308.125 128.964844 308.144531 C 128.964844 308.210938 128.992188 308.269531 129.046875 308.277344 C 129.070312 308.285156 129.277344 308.125 129.304688 307.738281 C 129.40625 306.730469 129.191406 304.191406 129.164062 303.929688 C 129.113281 302.566406 129.160156 301.164062 129.308594 299.78125 C 129.4375 298.382812 129.648438 296.996094 129.917969 295.65625 C 130.746094 291.339844 132.414062 283.703125 135.242188 277.640625 C 135.972656 276.0625 136.796875 274.597656 137.683594 273.308594 C 139.257812 270.996094 141.058594 269.257812 143.277344 268.667969 C 143.3125 268.65625 143.332031 268.605469 143.324219 268.5625 C 143.316406 268.515625 143.273438 268.488281 143.238281 268.503906 C 140.886719 268.945312 138.832031 270.566406 137.085938 272.890625 C 136.144531 274.179688 135.320312 275.707031 134.570312 277.328125 C 131.722656 283.445312 130.144531 291.183594 129.351562 295.550781 C 129.097656 296.914062 128.886719 298.316406 128.777344 299.734375 C 128.640625 301.144531 128.613281 302.570312 128.679688 303.960938 C 128.6875 304.207031 128.734375 306.742188 128.882812 307.753906 C 128.898438 307.90625 128.976562 308.046875 128.980469 308.101562 Z M 128.980469 308.101562 " fill-opacity="1" fill-rule="evenodd"/><path fill="#102e4a" d="M 150.574219 270.667969 C 151.222656 271.480469 151.667969 272.441406 152.007812 273.460938 C 152.496094 274.972656 152.738281 276.601562 153.175781 278.105469 C 154.167969 281.472656 155.132812 284.714844 155.957031 288.027344 C 156.492188 290.207031 156.957031 292.414062 157.328125 294.714844 C 157.792969 297.507812 157.960938 300.605469 158.703125 303.457031 C 159.109375 305.03125 159.671875 306.5625 160.582031 307.863281 C 160.804688 308.191406 161.066406 308.484375 161.351562 308.785156 C 161.40625 308.851562 161.488281 308.859375 161.5625 308.8125 C 161.636719 308.769531 161.648438 308.675781 161.59375 308.605469 C 161.378906 308.265625 161.222656 307.921875 161.039062 307.574219 C 160.34375 306.222656 159.851562 304.789062 159.480469 303.265625 C 158.816406 300.414062 158.578125 297.355469 158.128906 294.589844 C 157.714844 292.269531 157.199219 290.039062 156.617188 287.84375 C 155.734375 284.539062 154.707031 281.320312 153.648438 277.964844 C 153.152344 276.472656 152.851562 274.851562 152.304688 273.347656 C 151.945312 272.316406 151.449219 271.335938 150.75 270.515625 C 150.710938 270.46875 150.632812 270.460938 150.585938 270.503906 C 150.542969 270.546875 150.539062 270.621094 150.574219 270.667969 Z M 150.574219 270.667969 " fill-opacity="1" fill-rule="evenodd"/><path fill="#102e4a" d="M 167.222656 311.125 C 167.40625 311.667969 167.992188 311.664062 168.652344 311.222656 C 170.097656 310.304688 172.074219 307.382812 172.316406 307.011719 C 172.863281 306.0625 173.386719 305.101562 173.84375 304.105469 C 175.6875 300.199219 176.941406 295.980469 179.066406 292.257812 C 179.371094 291.679688 180.097656 290.890625 180.875 290.246094 C 181.449219 289.742188 182.082031 289.375 182.660156 289.253906 C 182.816406 289.210938 182.980469 289.15625 183.140625 289.167969 C 183.234375 289.203125 183.34375 289.148438 183.382812 289.050781 C 183.425781 288.953125 183.363281 288.835938 183.269531 288.800781 C 183.03125 288.644531 182.785156 288.570312 182.484375 288.5625 C 181.941406 288.539062 181.355469 288.800781 180.785156 289.160156 C 179.683594 289.859375 178.71875 291.066406 178.28125 291.824219 C 176.242188 295.613281 175.023438 299.867188 173.21875 303.816406 C 172.769531 304.792969 172.300781 305.753906 171.765625 306.683594 C 171.570312 307.007812 170.066406 309.152344 168.832031 310.355469 C 168.441406 310.742188 168.074219 311.015625 167.789062 311.097656 C 167.660156 311.140625 167.519531 311.144531 167.433594 311.023438 C 167.402344 310.964844 167.332031 310.9375 167.265625 310.960938 C 167.222656 311 167.195312 311.066406 167.222656 311.125 Z M 167.222656 311.125 " fill-opacity="1" fill-rule="evenodd"/><path fill="#102e4a" d="M 187.3125 287.652344 C 187.292969 287.824219 187.402344 288.085938 187.609375 288.378906 C 188.011719 288.929688 188.824219 289.613281 189.367188 290.417969 C 189.644531 290.804688 189.863281 291.203125 189.9375 291.609375 C 190.800781 295.480469 190.625 300.796875 192.144531 304.941406 C 192.5625 306.09375 193.089844 307.191406 193.875 308.078125 C 194.417969 308.683594 195.050781 309.152344 195.761719 309.5625 C 195.824219 309.609375 195.914062 309.597656 195.964844 309.539062 C 195.996094 309.46875 196.003906 309.390625 195.9375 309.339844 C 195.367188 308.804688 194.960938 308.199219 194.539062 307.566406 C 193.953125 306.667969 193.433594 305.6875 193.058594 304.617188 C 191.585938 300.492188 191.582031 295.269531 190.644531 291.445312 C 190.484375 290.792969 190.085938 290.167969 189.601562 289.621094 C 189 288.949219 188.339844 288.359375 187.898438 287.96875 C 187.738281 287.820312 187.582031 287.734375 187.546875 287.625 C 187.519531 287.554688 187.480469 287.515625 187.398438 287.515625 C 187.339844 287.523438 187.308594 287.59375 187.3125 287.652344 Z M 187.3125 287.652344 " fill-opacity="1" fill-rule="evenodd"/><path fill="#102e4a" d="M 202.582031 310.144531 C 202.648438 310.308594 202.828125 310.339844 203.105469 310.214844 C 203.28125 310.132812 203.488281 309.910156 203.738281 309.652344 C 204.648438 308.621094 205.976562 306.625 206.375 305.957031 C 207.550781 304.058594 209.445312 299.128906 211.78125 296.207031 C 212.640625 295.113281 213.566406 294.375 214.570312 294.109375 C 214.851562 294.03125 215.113281 293.9375 215.417969 293.9375 C 215.523438 293.953125 215.636719 293.882812 215.65625 293.773438 C 215.675781 293.664062 215.609375 293.558594 215.503906 293.539062 C 215.152344 293.398438 214.796875 293.320312 214.425781 293.339844 C 213.230469 293.417969 212.117188 294.394531 211.082031 295.644531 C 208.707031 298.589844 206.945312 303.664062 205.804688 305.613281 C 205.527344 306.125 204.734375 307.386719 204.011719 308.433594 C 203.59375 309.015625 203.207031 310.042969 202.929688 309.785156 C 202.808594 309.675781 202.695312 309.945312 202.757812 309.992188 C 202.722656 309.945312 202.644531 309.933594 202.597656 309.976562 C 202.550781 310.019531 202.546875 310.09375 202.582031 310.144531 Z M 202.582031 310.144531 " fill-opacity="1" fill-rule="evenodd"/><path fill="#102e4a" d="M 218.789062 292.546875 C 218.785156 292.8125 219.058594 293.273438 219.449219 293.78125 C 220.132812 294.648438 221.164062 295.667969 221.398438 296.15625 C 222.644531 298.546875 223.117188 301.386719 224.257812 303.832031 C 224.621094 304.597656 225.019531 305.351562 225.582031 305.980469 C 225.824219 306.253906 226.09375 306.46875 226.40625 306.707031 C 226.421875 306.734375 226.476562 306.734375 226.519531 306.703125 C 226.558594 306.671875 226.558594 306.613281 226.519531 306.574219 C 226.3125 306.285156 226.160156 305.984375 225.980469 305.695312 C 225.554688 305.007812 225.128906 304.316406 224.804688 303.585938 C 223.683594 301.105469 223.113281 298.292969 221.859375 295.917969 C 221.546875 295.355469 220.175781 294.097656 219.445312 293.210938 C 219.207031 292.929688 219.03125 292.695312 219.015625 292.53125 C 219.015625 292.46875 218.957031 292.414062 218.898438 292.421875 C 218.816406 292.421875 218.761719 292.476562 218.789062 292.546875 Z M 218.789062 292.546875 " fill-opacity="1" fill-rule="evenodd"/><path fill="#102e4a" d="M 229.421875 307.5625 C 229.808594 307.820312 230.339844 307.6875 230.863281 307.304688 C 231.707031 306.695312 232.523438 305.4375 232.992188 304.933594 C 234.566406 303.269531 236.039062 301.382812 237.28125 299.332031 C 238.484375 297.300781 239.453125 295.113281 240.113281 292.867188 C 240.144531 292.726562 240.070312 292.582031 239.945312 292.546875 C 239.796875 292.5 239.652344 292.578125 239.621094 292.71875 C 238.910156 294.894531 237.871094 296.988281 236.683594 298.976562 C 235.464844 300.980469 234.070312 302.871094 232.554688 304.523438 C 232.09375 305.019531 231.277344 306.210938 230.535156 306.90625 C 230.171875 307.234375 229.871094 307.488281 229.539062 307.355469 C 229.46875 307.324219 229.402344 307.347656 229.378906 307.40625 C 229.332031 307.453125 229.355469 307.523438 229.421875 307.5625 Z M 229.421875 307.5625 " fill-opacity="1" fill-rule="evenodd"/><path fill="#102e4a" d="M 123.835938 301.101562 C 123.792969 300.945312 123.902344 301.207031 124.097656 301.265625 C 124.394531 301.355469 124.753906 301.417969 124.96875 301.433594 C 124.96875 301.433594 128.082031 301.542969 128.082031 301.542969 C 129.90625 301.617188 131.707031 301.691406 133.5 301.710938 C 134.710938 301.730469 135.90625 301.726562 137.109375 301.699219 C 139.796875 301.644531 142.46875 301.621094 145.152344 301.628906 C 150.140625 301.636719 155.148438 301.796875 160.144531 301.839844 C 161.390625 301.851562 162.644531 301.832031 163.894531 301.828125 C 163.921875 301.828125 163.933594 301.800781 163.941406 301.78125 C 163.929688 301.75 163.910156 301.726562 163.882812 301.726562 C 159.449219 301.527344 154.976562 301.285156 150.519531 301.140625 C 146.039062 300.988281 141.550781 300.917969 137.097656 300.957031 L 128.101562 300.851562 L 124.96875 300.785156 C 124.679688 300.8125 124.089844 300.703125 123.832031 300.78125 C 123.550781 300.863281 123.410156 300.996094 123.644531 301.222656 C 123.675781 301.28125 123.75 301.304688 123.792969 301.265625 C 123.859375 301.238281 123.867188 301.160156 123.835938 301.101562 Z M 123.835938 301.101562 " fill-opacity="1" fill-rule="evenodd"/><path fill="#102e4a" d="M 168.625 301.269531 C 170.1875 301.054688 171.761719 301.007812 173.367188 301.011719 C 177.085938 301.011719 180.851562 301.339844 184.515625 301.203125 C 191.484375 300.921875 198.492188 300.8125 205.488281 300.851562 C 212.488281 300.890625 219.480469 301.070312 226.445312 301.316406 C 230.074219 301.460938 236.445312 300.761719 241.675781 300.71875 C 243.070312 300.703125 244.371094 300.769531 245.53125 300.847656 C 246.179688 300.890625 246.785156 300.960938 247.320312 301.003906 C 247.589844 301.023438 247.84375 301.015625 248.105469 301.046875 C 248.179688 301.070312 248.253906 301.027344 248.261719 300.945312 C 248.289062 300.878906 248.242188 300.796875 248.167969 300.773438 C 247.921875 300.640625 247.675781 300.503906 247.359375 300.398438 C 246.382812 300.085938 245.167969 300.007812 243.859375 299.964844 C 238.355469 299.734375 230.617188 300.835938 226.480469 300.71875 C 219.472656 300.507812 212.480469 300.398438 205.492188 300.394531 C 198.484375 300.382812 191.484375 300.476562 184.488281 300.75 C 180.824219 300.894531 177.058594 300.492188 173.363281 300.574219 C 171.742188 300.605469 170.152344 300.75 168.589844 301.03125 C 168.507812 301.035156 168.476562 301.105469 168.480469 301.164062 C 168.480469 301.226562 168.542969 301.269531 168.625 301.269531 Z M 168.625 301.269531 " fill-opacity="1" fill-rule="evenodd"/><path fill="#102e4a" d="M 141.863281 326.082031 L 141.859375 326.089844 C 141.835938 326.148438 141.863281 326.214844 141.933594 326.246094 C 141.949219 326.265625 142.132812 326.230469 142.207031 325.933594 C 142.230469 325.804688 142.25 325.628906 142.265625 325.402344 C 142.308594 324.265625 142.269531 321.90625 142.214844 318.613281 C 142.183594 315.460938 142.109375 312.265625 142.144531 309.085938 C 142.167969 306.964844 142.246094 304.851562 142.398438 302.753906 C 142.511719 300.9375 142.570312 299.121094 142.578125 297.296875 C 142.59375 293.0625 142.371094 288.800781 142.378906 284.585938 L 142.957031 263.796875 C 143 261.570312 142.582031 257.894531 142.554688 254.539062 C 142.519531 252.746094 142.632812 251.054688 142.898438 249.730469 C 142.945312 249.492188 143.035156 249.277344 143.046875 249.058594 C 143.050781 248.859375 142.992188 248.734375 142.988281 248.554688 C 143.035156 248.378906 142.949219 248.183594 142.785156 248.121094 C 142.617188 248.058594 142.417969 248.136719 142.367188 248.316406 C 142.210938 248.492188 142.039062 248.628906 141.9375 248.871094 C 141.613281 249.554688 141.613281 250.464844 141.5625 251.421875 C 141.359375 255.378906 142.226562 260.847656 142.238281 263.792969 L 141.789062 284.597656 C 141.789062 288.804688 142.011719 293.058594 142.023438 297.296875 C 142.023438 299.105469 141.96875 300.910156 141.859375 302.714844 C 141.726562 304.832031 141.648438 306.949219 141.648438 309.085938 C 141.613281 312.265625 141.683594 315.457031 141.738281 318.621094 C 141.800781 321.90625 141.757812 324.261719 141.800781 325.386719 C 141.824219 325.726562 141.84375 325.9375 141.851562 326.046875 C 141.847656 326.058594 141.867188 326.078125 141.863281 326.082031 Z M 141.863281 326.082031 " fill-opacity="1" fill-rule="evenodd"/><path fill="#102e4a" d="M 142.257812 248.1875 C 142.195312 248.207031 142.144531 248.257812 142.148438 248.378906 C 142.191406 248.730469 142.589844 249.28125 142.722656 249.492188 C 143.089844 249.992188 143.453125 250.503906 143.882812 250.984375 C 144.140625 251.292969 144.460938 251.582031 144.742188 251.890625 C 144.773438 251.949219 144.851562 251.960938 144.921875 251.921875 C 144.972656 251.875 145.003906 251.800781 144.949219 251.734375 C 144.777344 251.359375 144.605469 250.980469 144.378906 250.609375 C 144.078125 250.082031 143.710938 249.582031 143.382812 249.050781 C 143.246094 248.855469 143.089844 248.1875 142.808594 248.003906 C 142.613281 247.875 142.578125 247.960938 142.476562 247.9375 C 142.273438 247.890625 142.105469 247.765625 142.210938 248.105469 C 142.222656 248.140625 142.238281 248.171875 142.257812 248.1875 Z M 142.257812 248.1875 " fill-opacity="1" fill-rule="evenodd"/><g clip-path="url(#60a19e1324)"><g clip-path="url(#488de1299a)"><g clip-path="url(#b55cf3eea5)"><path fill="#102e4a" d="M 361.832031 155.371094 C 361.753906 155.132812 361.464844 154.984375 361.226562 155.066406 C 350.023438 158.636719 347.148438 153.753906 344.113281 148.566406 C 341.164062 143.515625 338.109375 138.285156 327.410156 141.1875 C 327.339844 141.195312 327.265625 141.199219 327.226562 141.21875 C 316.023438 144.789062 313.148438 139.90625 310.113281 134.71875 C 307.011719 129.4375 303.820312 123.945312 291.859375 127.777344 C 291.816406 127.792969 291.777344 127.8125 291.722656 127.859375 C 281.386719 130.800781 278.597656 126.054688 275.679688 121.015625 C 272.757812 115.976562 269.675781 110.734375 258.976562 113.636719 C 258.90625 113.644531 258.832031 113.648438 258.761719 113.65625 C 247.558594 117.226562 244.683594 112.34375 241.648438 107.15625 C 238.523438 101.761719 235.316406 96.300781 223.398438 100.113281 C 223.160156 100.191406 223.015625 100.480469 223.09375 100.71875 C 223.175781 100.957031 223.464844 101.105469 223.703125 101.023438 C 234.90625 97.453125 237.78125 102.335938 240.816406 107.523438 C 242.605469 110.570312 244.402344 113.6875 247.917969 115.050781 C 250.234375 115.949219 253.285156 116.09375 257.535156 114.945312 C 257.605469 114.9375 257.667969 114.960938 257.75 114.925781 C 268.953125 111.355469 271.828125 116.238281 274.863281 121.425781 C 276.652344 124.46875 278.453125 127.585938 281.96875 128.949219 C 284.550781 129.953125 288.058594 130 293.105469 128.398438 C 293.148438 128.378906 293.1875 128.359375 293.242188 128.3125 C 303.578125 125.375 306.367188 130.121094 309.296875 135.128906 C 311.089844 138.175781 312.886719 141.292969 316.402344 142.65625 C 318.714844 143.550781 321.738281 143.6875 326.019531 142.546875 C 326.089844 142.542969 326.164062 142.535156 326.203125 142.515625 C 337.40625 138.945312 340.28125 143.828125 343.316406 149.015625 C 345.109375 152.0625 346.90625 155.179688 350.421875 156.542969 C 353.003906 157.546875 356.511719 157.59375 361.558594 155.988281 C 361.765625 155.898438 361.902344 155.640625 361.832031 155.371094 Z M 361.832031 155.371094 " fill-opacity="1" fill-rule="nonzero"/></g></g></g><g clip-path="url(#cc05b9a4e1)"><g clip-path="url(#1e0551678d)"><g clip-path="url(#cd106883b6)"><path fill="#102e4a" d="M 217.355469 45.136719 C 217.105469 44.9375 216.695312 44.980469 216.496094 45.230469 C 207.042969 56.734375 200.625 53.519531 193.832031 50.089844 C 187.222656 46.75 180.378906 43.289062 170.996094 53.734375 C 170.925781 53.789062 170.851562 53.847656 170.820312 53.894531 C 161.367188 65.394531 154.949219 62.179688 148.15625 58.753906 C 141.222656 55.269531 134.050781 51.628906 123.96875 63.925781 C 123.9375 63.976562 123.90625 64.023438 123.882812 64.109375 C 114.914062 74.34375 108.683594 71.214844 102.113281 67.867188 C 95.542969 64.519531 88.660156 61.066406 79.277344 71.511719 C 79.207031 71.566406 79.136719 71.625 79.0625 71.679688 C 69.609375 83.179688 63.191406 79.964844 56.398438 76.539062 C 49.363281 72.953125 42.199219 69.351562 32.148438 81.601562 C 31.949219 81.847656 31.992188 82.257812 32.242188 82.457031 C 32.492188 82.652344 32.898438 82.613281 33.097656 82.363281 C 42.554688 70.859375 48.96875 74.074219 55.765625 77.503906 C 59.761719 79.507812 63.820312 81.585938 68.496094 80.621094 C 71.574219 79.980469 74.921875 78.039062 78.648438 73.890625 C 78.71875 73.835938 78.796875 73.820312 78.863281 73.722656 C 88.316406 62.222656 94.734375 65.4375 101.527344 68.863281 C 105.527344 70.871094 109.582031 72.949219 114.257812 71.980469 C 117.695312 71.269531 121.457031 68.90625 125.722656 63.730469 C 125.753906 63.683594 125.785156 63.632812 125.808594 63.546875 C 134.777344 53.3125 141.007812 56.441406 147.570312 59.75 C 151.570312 61.757812 155.625 63.832031 160.300781 62.867188 C 163.378906 62.230469 166.6875 60.292969 170.453125 56.136719 C 170.523438 56.082031 170.597656 56.023438 170.628906 55.976562 C 180.082031 44.476562 186.5 47.691406 193.292969 51.117188 C 197.292969 53.125 201.347656 55.203125 206.023438 54.234375 C 209.460938 53.523438 213.222656 51.160156 217.488281 45.984375 C 217.644531 45.742188 217.613281 45.375 217.355469 45.136719 Z M 217.355469 45.136719 " fill-opacity="1" fill-rule="nonzero"/></g></g></g></svg>