<svg xmlns="http://www.w3.org/2000/svg" xmlns:xlink="http://www.w3.org/1999/xlink" width="500" zoomAndPan="magnify" viewBox="0 0 375 374.999991" height="500" preserveAspectRatio="xMidYMid meet" version="1.0"><defs><clipPath id="408646bd0b"><path d="M 207 82 L 351 82 L 351 151 L 207 151 Z M 207 82 " clip-rule="nonzero"/></clipPath><clipPath id="79e491c596"><path d="M 217.152344 65.871094 L 360.164062 111.121094 L 343.195312 164.75 L 200.183594 119.5 Z M 217.152344 65.871094 " clip-rule="nonzero"/></clipPath><clipPath id="73cf1aca6b"><path d="M 217.152344 65.871094 L 360.164062 111.121094 L 343.195312 164.75 L 200.183594 119.5 Z M 217.152344 65.871094 " clip-rule="nonzero"/></clipPath><clipPath id="18e4cc9ca6"><path d="M 0 0 L 187 0 L 187 157 L 0 157 Z M 0 0 " clip-rule="nonzero"/></clipPath><clipPath id="5624bb20df"><path d="M -13.460938 23.554688 L 120.652344 -43.628906 L 187.835938 90.484375 L 53.722656 157.667969 Z M -13.460938 23.554688 " clip-rule="nonzero"/></clipPath><clipPath id="db3684f993"><path d="M -13.460938 23.554688 L 120.652344 -43.628906 L 187.835938 90.484375 L 53.722656 157.667969 Z M -13.460938 23.554688 " clip-rule="nonzero"/></clipPath><clipPath id="d35b31b967"><path d="M 112.195312 318.347656 L 262 318.347656 L 262 375 L 112.195312 375 Z M 112.195312 318.347656 " clip-rule="nonzero"/></clipPath></defs><g clip-path="url(#408646bd0b)"><g clip-path="url(#79e491c596)"><g clip-path="url(#73cf1aca6b)"><path fill="#102e4a" d="M 258.445312 138.101562 C 258.433594 138.101562 258.429688 138.097656 258.417969 138.09375 C 257.222656 137.707031 256.460938 136.53125 256.59375 135.285156 L 260.925781 93.648438 L 248.054688 108.371094 C 247.371094 109.152344 246.292969 109.46875 245.292969 109.175781 L 209.746094 98.722656 C 208.34375 98.289062 207.527344 96.820312 207.9375 95.410156 C 208.351562 93.996094 209.839844 93.1875 211.253906 93.601562 L 245.164062 103.578125 L 262.4375 83.8125 C 263.203125 82.9375 264.449219 82.660156 265.507812 83.125 C 266.578125 83.589844 267.21875 84.6875 267.097656 85.847656 L 263.171875 123.523438 L 282.332031 90.667969 C 282.953125 89.601562 284.226562 89.097656 285.410156 89.460938 C 286.59375 89.800781 287.375 90.941406 287.296875 92.175781 L 284.921875 130.488281 L 304.042969 95.601562 C 304.652344 94.492188 305.964844 93.960938 307.175781 94.335938 C 308.382812 94.730469 309.167969 95.890625 309.035156 97.152344 L 304.601562 141.25 L 315.546875 130.515625 C 316.234375 129.839844 317.230469 129.589844 318.160156 129.859375 L 348.457031 138.667969 C 349.867188 139.082031 350.683594 140.558594 350.273438 141.972656 C 349.859375 143.386719 348.382812 144.203125 346.96875 143.792969 L 318.171875 135.421875 L 303.085938 150.21875 C 302.28125 151.003906 301.074219 151.203125 300.0625 150.71875 C 299.054688 150.230469 298.453125 149.160156 298.5625 148.042969 L 302.425781 109.667969 L 283.871094 143.523438 C 283.269531 144.621094 281.988281 145.148438 280.789062 144.804688 C 279.601562 144.457031 278.792969 143.320312 278.867188 142.074219 L 281.285156 103.066406 L 261.550781 136.914062 C 260.925781 137.980469 259.632812 138.480469 258.445312 138.101562 Z M 258.445312 138.101562 " fill-opacity="1" fill-rule="nonzero"/></g></g></g><g clip-path="url(#18e4cc9ca6)"><g clip-path="url(#5624bb20df)"><g clip-path="url(#db3684f993)"><path fill="#102e4a" d="M -1.5625 42.488281 C -2.609375 43.015625 -3.882812 42.589844 -4.40625 41.542969 C -4.929688 40.5 -4.507812 39.226562 -3.460938 38.699219 L 12.949219 30.480469 L 11.136719 13.269531 C 10.933594 11.320312 13.261719 10.191406 14.675781 11.5 L 38.101562 33.183594 L 34.757812 1.4375 C 34.554688 -0.511719 36.882812 -1.640625 38.296875 -0.335938 L 61.722656 21.351562 L 58.378906 -10.394531 C 58.175781 -12.347656 60.503906 -13.472656 61.917969 -12.167969 L 85.34375 9.519531 L 82 -22.230469 C 81.796875 -24.179688 84.125 -25.308594 85.539062 -24 L 108.964844 -2.316406 L 107.589844 -15.390625 C 107.496094 -16.265625 107.953125 -17.113281 108.742188 -17.507812 L 126.457031 -26.382812 C 127.503906 -26.90625 128.777344 -26.484375 129.300781 -25.4375 C 129.824219 -24.390625 129.402344 -23.117188 128.355469 -22.59375 L 111.945312 -14.371094 L 113.757812 2.835938 C 113.957031 4.753906 111.660156 5.941406 110.222656 4.609375 L 86.796875 -17.078125 L 90.136719 14.671875 C 90.335938 16.585938 88.039062 17.773438 86.597656 16.441406 L 63.171875 -5.242188 L 66.515625 26.503906 C 66.714844 28.417969 64.417969 29.609375 62.976562 28.277344 L 39.550781 6.589844 L 42.894531 38.335938 C 43.09375 40.25 40.796875 41.441406 39.355469 40.109375 L 15.929688 18.421875 L 17.292969 31.347656 C 17.453125 32.25 17.015625 33.183594 16.15625 33.617188 L -1.5625 42.492188 Z M 43.234375 65.9375 L 65.429688 110.238281 C 60.476562 112.71875 54.761719 111.441406 52.1875 106.304688 L 38.457031 78.894531 C 35.882812 73.757812 38.285156 68.417969 43.234375 65.9375 Z M 47.023438 64.039062 C 49.890625 62.601562 52.410156 62.238281 55.425781 63.609375 C 57.847656 64.714844 60.683594 64.699219 63.222656 63.429688 L 79.15625 55.445312 L 95.339844 87.75 L 79.40625 95.730469 C 76.867188 97.003906 75.15625 99.265625 74.589844 101.867188 C 73.882812 105.105469 72.082031 106.90625 69.21875 108.339844 Z M 82.945312 53.546875 L 87.585938 51.222656 L 103.765625 83.527344 L 99.128906 85.851562 Z M 91.375 49.324219 L 96.011719 47.003906 L 112.195312 79.304688 L 107.554688 81.628906 Z M 99.800781 45.105469 L 104.4375 42.78125 L 120.621094 75.082031 L 115.984375 77.40625 Z M 108.121094 40.667969 C 109.675781 39.375 110.726562 37.628906 111.148438 35.695312 C 111.855469 32.457031 113.65625 30.660156 116.519531 29.222656 L 138.714844 73.523438 C 135.847656 74.960938 133.328125 75.324219 130.3125 73.953125 C 128.511719 73.128906 126.484375 72.929688 124.519531 73.402344 Z M 120.308594 27.324219 C 125.261719 24.847656 130.980469 26.121094 133.550781 31.257812 L 147.28125 58.667969 C 149.855469 63.804688 147.453125 69.148438 142.503906 71.628906 Z M 143.257812 41.167969 L 156.878906 34.34375 C 157.925781 33.820312 159.199219 34.246094 159.722656 35.292969 L 186.511719 88.769531 C 187.039062 89.816406 186.613281 91.089844 185.566406 91.613281 C 184.519531 92.136719 183.25 91.714844 182.722656 90.667969 L 156.882812 39.085938 L 145.15625 44.957031 Z M 42.480469 96.394531 L 30.753906 102.269531 L 56.59375 153.851562 C 57.121094 154.898438 56.695312 156.171875 55.648438 156.695312 C 54.605469 157.21875 53.332031 156.796875 52.804688 155.75 L 26.015625 102.273438 C 25.492188 101.226562 25.914062 99.953125 26.960938 99.429688 L 40.582031 92.605469 Z M 42.480469 96.394531 " fill-opacity="1" fill-rule="evenodd"/></g></g></g><g clip-path="url(#d35b31b967)"><path fill="#102e4a" d="M 114.351562 340.609375 C 113.183594 340.609375 112.234375 339.660156 112.234375 338.488281 C 112.234375 337.320312 113.183594 336.371094 114.351562 336.371094 L 132.707031 336.371094 L 138.792969 320.171875 C 139.484375 318.335938 142.070312 318.371094 142.75 320.171875 L 153.980469 350.054688 L 165.214844 320.171875 C 165.90625 318.335938 168.492188 318.371094 169.171875 320.171875 L 180.402344 350.054688 L 191.632812 320.171875 C 192.324219 318.335938 194.910156 318.371094 195.589844 320.171875 L 206.820312 350.054688 L 218.054688 320.171875 C 218.742188 318.335938 221.332031 318.371094 222.007812 320.171875 L 233.242188 350.054688 L 237.867188 337.742188 C 238.175781 336.921875 238.964844 336.371094 239.847656 336.371094 L 259.660156 336.371094 C 260.832031 336.371094 261.777344 337.320312 261.777344 338.488281 C 261.777344 339.660156 260.832031 340.609375 259.660156 340.609375 L 241.308594 340.609375 L 235.21875 356.804688 C 234.539062 358.605469 231.953125 358.640625 231.261719 356.804688 L 220.03125 326.925781 L 208.800781 356.804688 C 208.121094 358.605469 205.535156 358.640625 204.84375 356.804688 L 193.609375 326.925781 L 182.378906 356.804688 C 181.699219 358.605469 179.113281 358.640625 178.421875 356.804688 L 167.191406 326.925781 L 155.960938 356.804688 C 155.28125 358.605469 152.695312 358.640625 152.003906 356.804688 L 140.773438 326.925781 L 136.199219 339.089844 C 135.941406 339.96875 135.128906 340.609375 134.167969 340.609375 Z M 143.902344 381.636719 L 143.902344 431.183594 C 138.367188 431.183594 133.824219 427.484375 133.824219 421.738281 L 133.824219 391.082031 C 133.824219 385.335938 138.367188 381.636719 143.902344 381.636719 Z M 148.140625 381.636719 C 151.34375 381.636719 153.761719 382.4375 155.84375 385.015625 C 157.515625 387.089844 160.058594 388.34375 162.898438 388.34375 L 180.71875 388.34375 L 180.71875 424.476562 L 162.898438 424.476562 C 160.058594 424.476562 157.515625 425.730469 155.84375 427.804688 C 153.761719 430.382812 151.34375 431.183594 148.140625 431.183594 Z M 184.957031 388.34375 L 190.144531 388.34375 L 190.144531 424.476562 L 184.957031 424.476562 Z M 194.382812 388.34375 L 199.570312 388.34375 L 199.570312 424.476562 L 194.382812 424.476562 Z M 203.808594 388.34375 L 208.996094 388.34375 L 208.996094 424.476562 L 203.808594 424.476562 Z M 213.234375 388.105469 C 215.203125 387.644531 216.925781 386.558594 218.167969 385.015625 C 220.25 382.4375 222.667969 381.636719 225.871094 381.636719 L 225.871094 431.183594 C 222.667969 431.183594 220.25 430.382812 218.167969 427.804688 C 216.925781 426.261719 215.203125 425.171875 213.234375 424.714844 Z M 230.109375 381.636719 C 235.644531 381.636719 240.1875 385.335938 240.1875 391.082031 L 240.1875 421.738281 C 240.1875 427.484375 235.644531 431.183594 230.109375 431.183594 Z M 244.425781 404.289062 L 259.660156 404.289062 C 260.832031 404.289062 261.777344 405.238281 261.777344 406.410156 L 261.777344 466.222656 C 261.777344 467.394531 260.832031 468.34375 259.660156 468.34375 C 258.488281 468.34375 257.542969 467.394531 257.542969 466.222656 L 257.542969 408.527344 L 244.425781 408.527344 Z M 129.585938 408.527344 L 116.472656 408.527344 L 116.472656 466.222656 C 116.472656 467.394531 115.523438 468.34375 114.351562 468.34375 C 113.183594 468.34375 112.234375 467.394531 112.234375 466.222656 L 112.234375 406.410156 C 112.234375 405.238281 113.183594 404.289062 114.351562 404.289062 L 129.585938 404.289062 Z M 129.585938 408.527344 " fill-opacity="1" fill-rule="evenodd"/></g></svg>